<svg xmlns="http://www.w3.org/2000/svg" version="1.1" xmlns:xlink="http://www.w3.org/1999/xlink" preserveAspectRatio="none" x="0px" y="0px" width="1920px" height="1080px" viewBox="0 0 1920 1080" transform="scale(1.502968362515969, 1.5029605025633619)"><defs transform="scale(1.502968362515969, 1.5029605025633619)"><g id="Layer0_0_FILL" transform="scale(1.502968362515969, 1.5029605025633619)"><path fill="#000000" stroke="none" d="
M 1329.35 243.15
Q 1323.45 234.45 1303.8 213.55 1284.25 192.6 1267.4 177 1250.5 161.25 1218.7 137.45 1188.65 114.95 1166.15 100.7 1178.75 104 1185.75 106.7 1194.15 110 1197.05 113.4
L 1197.05 113.45
Q 1199.8 116.65 1202.95 117.35
L 1203 117.4
Q 1206.1 118.1 1208.45 116.4 1208.45 116.35 1208.5 116.35 1210.8 114.5 1210.8 111.25 1210.85 108 1208.2 104.6 1205.05 100.55 1194.5 96.15 1184.25 91.8 1161.75 85.1 1137.5 77.65 1128.2 73.95 1118.65 70.15 1100 60.35 1058.65 38.8 1029.85 30.5 1026.1 29.45 1022.6 28.6 991.7 21.1 939.25 21.45 925.65 21.45 913.05 21.7 901.35 21.9 899.4 22.1 887.7 23.1 878.65 23.85 852.55 26.05 828.55 30.45 828.4 30.45 828.25 30.5 804.25 34.85 788.3 40.35 775.2 44.9 757.9 53.85
L 757.85 53.85
Q 740.6 62.75 724.9 73.15 707.65 84.6 697.15 93.1
L 697.2 93.1
Q 686.25 101.8 676.45 112.3
L 676.5 112.3
Q 672.6 116.3 669.05 119.45 665.8 122.3 664.8 122.7
L 664.75 122.75
Q 654.95 125.9 623.55 142.05 592.05 158.2 573.65 169.65
L 573.7 169.65
Q 564.35 175.35 555.75 182.85 546.9 190.45 544.7 194.75
L 544.7 194.8
Q 542.2 199.6 542.85 202.85 543.45 206.4 547.45 208.15
L 547.5 208.15
Q 554.2 211.1 569.55 206.9 572.8 205.95 574.95 205.4 574.15 206.2 573.2 207.15
L 573.15 207.15
Q 540.15 239.7 526.85 260.85 513.4 281.95 507.5 311.1 505.6 320.1 505.3 329.8 504.9 339.9 505.15 374.65
L 505.15 374.7
Q 505.4 399.1 505.3 411.25 505.25 415.2 505.15 417.85 504.85 428.2 503.6 433.85 498.2 456.2 485.75 474.35
L 485.75 474.4
Q 482.95 478.75 466.85 502.45
L 466.85 502.5
Q 457.25 517.05 448.6 534.1 439.9 551.35 435.85 564.1 431 579.6 429.45 590.75 427.85 601.85 428.3 617.5 428.55 625.5 429.4 632 430.4 639.85 432.3 645.55 435.65 655.75 446.35 672 448.05 674.55 449.1 677.95
L 449.05 677.95
Q 450.05 681.5 450.85 687.6 452.55 701.45 456.2 713.8 459.9 726.2 465.9 738.45 475.45 758.35 487 770.1 498.4 781.85 517.75 791.6 524.05 794.8 529.2 796.85 534.95 799.25 536.3 798.9 539 798.45 539.85 796.8 540.85 795.25 540 792.6 538.7 788.65 531.7 779.95 517.4 762.3 511.65 741.8 509.2 732.9 507.35 720.15 505.4 707.2 505.4 699.25 505.4 687.1 509 672.25 512.6 657.45 518.35 646.15 523.55 635.8 520.75 631.2
L 520.8 631.2
Q 519.05 628 515.8 629 513.35 629.6 509.85 633.35 503.05 640.5 497.65 660.85 492.3 680.9 492.3 699.1 492.3 717.65 497.2 738.05 502.05 758.4 509.55 771
L 509.55 770.95
Q 510.35 772.35 511.05 773.55 509.1 772.05 506.1 769.65 490.75 757.1 479.55 734.75 462.1 699.4 465.6 663.7 469.1 627.85 495.3 574.95 499.35 566.9 502.4 559.85 505.5 552.55 505.4 551.2 505.4 547.1 502.5 546.15
L 502.55 546.2
Q 499.95 544.95 496.3 547.3 493.35 549 482.8 569.75 472.55 589.7 466.6 604.7 462.3 615.6 457.8 632.4 453.2 649.3 453.25 654.15 453.25 656.15 453.15 657.35 452.1 655.75 450.25 651.65 445.35 640.9 443.85 631.6 442.2 622.25 442.8 607.45 443.55 588.35 447.75 573.25 452.05 558.1 462.4 537.65 469.6 523.35 487.95 496.2 506.45 468.9 519.05 453.9 531.7 438.75 538.9 426.45
L 538.9 426.5
Q 542.7 420.05 546.5 411.9 550.05 404.35 553.55 395.35 559.45 380.6 563.35 363.1 567.15 345.65 567.15 333.85 567.15 326.2 565.55 323.2
L 565.55 323.15
Q 563.6 319.4 559 320.15
L 559.05 320.1
Q 556.35 320.4 555.45 321.9
L 555.45 321.95
Q 554.7 322.9 554.3 326.25
L 554.3 326.3
Q 552.2 354.8 543.4 381.7 538.35 396.9 531.55 410.6 526.35 420.95 520.15 430.45
L 520.15 430.4
Q 518.15 433.35 516.75 435.4 517.15 432.5 517.75 429.35 518.8 422.9 519.15 413.95 519.2 412.7 519.25 411.3 519.4 402.65 519.15 388.75 518.5 342.25 519 330.95 519.5 319.6 522.75 307.25 526.3 293.75 532.45 280.85 538.6 267.95 546.45 257.35 549.6 253.2 557.8 244.05 566.1 234.7 574.55 226 591.6 208.25 596.3 202.45
L 596.35 202.45
Q 601.25 196.25 601.15 192.45 601.15 186.1 596.55 185.95
L 596.5 185.95
Q 593.05 185.75 580.7 189.9 567.65 194.3 562.7 195.45
L 562.65 195.45
Q 561.25 195.8 560.3 195.95 561.3 194.8 563.85 192.65
L 563.8 192.65
Q 568.5 188.75 575.95 183.75 584.15 178.4 621.1 158.65 647.9 144.25 656 140.35 655.2 141.6 654.15 143.3 649.85 149.95 641 163.3 621.95 191.95 614.55 207.5 607 223.4 603.9 241.45 601.3 255.65 602.7 269.35 604.1 282.85 610.2 303.55
L 610.25 303.55
Q 612.1 309.8 613.1 316.25 614 322.75 614.55 333.05 615.5 347.7 618.45 364.1 621.35 380.8 624.75 390.4
L 627.05 397.35 617.3 422.8
Q 603.4 459 598.3 478.65 593 498.45 591.25 522.25 589.65 542.8 596.1 568.95 602.55 595.15 613.65 612.6 620.55 623.55 629.3 629.15 638 634.6 652.7 637.5 669 640.6 673.35 642.75
L 673.3 642.75
Q 677.55 645 687.1 654.8 698.2 666.35 701.5 673.75 704.65 681.15 704.5 694.95 704.5 702.7 703.85 706.75 703.2 710.7 700.95 716.45
L 700.95 716.5
Q 689.05 748.5 659.35 772.35
L 660 771.15
Q 665.35 760.45 669.15 744.7 673.05 728.8 673.1 716.95
L 673.1 716.9
Q 673.25 709.5 671.9 706
L 671.9 705.95
Q 670.2 701.55 666.45 701.65 662.7 701.5 660.95 706.25 659.55 709.9 659.05 718.7 658 736.1 652.5 753.1 646.95 769.9 639.1 779.9 634.75 785.3 622.15 795.15
L 622.15 795.1
Q 609.45 804.85 601.65 808.95
L 601.65 808.9
Q 582.35 818.55 564.25 815.5
L 563.65 815.4 565 814.6 565.05 814.6
Q 569.8 811.8 574.7 805.2 579.5 798.85 583.3 790.5 592.1 770.9 591.6 745.85 591.15 720.65 581.5 706.4 578.75 702.15 577.2 701.05
L 577.15 701.05
Q 575.45 699.75 571.95 699.75 568.55 699.75 567.5 700.6 565.95 701.3 565.65 703.9
L 565.7 703.85
Q 565.35 705.4 566.4 708
L 566.45 708
Q 567.35 710.2 568.85 712.1
L 568.9 712.15
Q 573.3 718.1 575.2 726.1 577.1 734.4 577.1 747.9 577.25 770.55 570.7 784.4 564.2 798.15 548.95 807.75 544.05 810.9 542.35 812.7 540.15 814.9 540.2 817.2 540.05 822.25 546.85 825.2 552.65 827.8 566.4 829.4 581.5 831.35 594.85 827.1
L 594.9 827.1
Q 608.05 822.75 623.65 811.1 627.9 807.85 635.05 803.25
L 635 803.25
Q 642.25 798.6 648.05 795.3 673.9 780.55 690.2 762.1 706.55 743.6 714.4 720.3 718.6 707.7 718.65 691.75
L 718.65 691.7
Q 718.8 675.6 714.55 666.85 714 665.8 713.65 665
L 721.05 666.8
Q 728 668.55 730.6 670.1
L 730.55 670.1
Q 733.15 671.75 740.1 678.9 748.55 687.65 753.95 695.7 759.3 703.6 762.6 712.25 769.1 729.35 771.05 745.75 773.05 762 770.35 776.5 765.8 800.65 757.7 813.6
L 757.7 813.65
Q 754.8 818.3 753.65 819.25
L 753.6 819.3
Q 752.75 819.85 751.4 819.5
L 751.35 819.5
Q 747.6 818.6 736.05 812.95 724.4 807.25 719.7 804.1
L 719.7 804.15
Q 713.45 799.8 707.2 793.15 701.15 786.6 699.25 782.2 697.6 778.5 696.4 777.45 696.4 777.4 696.35 777.4 694.9 775.9 692.45 776.3
L 692.45 776.25
Q 690.35 776.45 688.55 778.8 687.15 780.6 685.25 785.1
L 685.2 785.15
Q 683.15 790.25 682.6 794.65
L 682.55 794.7
Q 682.1 798.6 681.95 810.25 681.95 825.15 683.85 833.8 685.65 842.35 691.45 854.4 695.4 862.6 700.2 869.5 699.85 869.4 699.5 869.4 697.8 869.15 695.3 871.05
L 695.25 871.05
Q 691.2 873.95 681 885.8 660.85 909.1 651.7 922 642.65 934.55 635.85 949
L 635.85 949.05
Q 624.45 973.4 624.25 999.25 624.25 1004.6 624.5 1008.7 624.9 1015.1 626 1018.5
L 626 1018.55
Q 628.15 1025.25 633.45 1024.45
L 633.5 1024.45 637 1024.1
Q 637.6 1024.05 638 1023.6 638.35 1023.15 638.35 1022.55
L 638.1 1013.1
Q 638 1010.9 638.05 1008.6 638.05 1000.35 639.3 990.4 640.85 977.85 643.45 968.55
L 643.45 968.6
Q 648.45 951.5 656.75 937.9 665.1 924.1 684.5 901.5 697.1 886.7 700.4 881.7
L 700.45 881.65
Q 703.6 876.65 703.05 873.4 707.75 879.45 713.2 884.45 726.15 896.3 749.35 907.4 775.65 919.9 800.65 924.35 825.6 928.7 857.45 926.55 898.8 923.6 944.85 913.15 990.85 902.65 1029.25 887.25 1067.7 871.9 1097.35 855.55
L 1097.35 855.5
Q 1127.1 838.95 1141.4 824.95 1150.2 816.4 1155.65 808.85 1161.2 801.05 1166.05 790.6 1168.25 785.8 1170.9 781.5 1173.35 777.35 1174.65 776.15
L 1174.7 776.1
Q 1183.55 767.9 1193.2 751.35 1202.75 735.05 1209.45 716.8 1209.65 716.25 1209.85 715.75 1210.7 749.25 1198.85 766.85 1185.6 786.35 1184.5 787.3 1182.45 788.5 1183.3 792.45 1183.9 796.3 1189 796.85 1189.05 796.85 1189.15 796.85 1190.95 796.9 1192.45 796.75 1194 796.6 1194.95 796.25 1198.45 795.2 1204.25 792.45 1213.3 788.2 1220.35 783.4
L 1225 780.25 1229.5 782.65
Q 1236.35 786.3 1240.6 790.25 1244.75 794.2 1251.2 802.85 1263.35 819.2 1272.95 837.25 1282.35 855.05 1286.45 869.3
L 1286.45 869.25
Q 1288.25 875.65 1288.75 880.6 1289.3 885.85 1289.2 897.2 1289.2 909.3 1288.65 913.85
L 1288.6 913.9
Q 1288.1 918.2 1286 924.2 1277.35 948.3 1255 972.2 1237.1 991.15 1212.95 1007.35 1206.65 1011.6 1199.95 1015.65 1175.45 1030.45 1149.1 1039.4 1122.75 1048.35 1089.65 1053.25 1075.9 1055.2 1070.6 1057.1
L 1070.65 1057.1
Q 1064.1 1059.2 1064.4 1062.8 1064.2 1066.55 1069.4 1067.9 1073.4 1068.95 1081.5 1068.3 1097.05 1067.05 1128.15 1059.3 1190.3 1043.7 1234.2 1009.8 1244.05 1002.1 1253.05 993.55 1271.3 976.15 1282.6 960 1293.85 943.85 1300.2 926.05 1303.45 916.7 1304.1 901.7 1304.75 886.65 1302.4 875.85 1295.75 845.8 1275.8 813.5 1255.7 780.7 1238.2 771.9
L 1235.85 770.65 1243.65 762.4
Q 1255.65 749.8 1262.4 738 1262.85 737.2 1263.25 736.45 1261.95 744.6 1260.45 749.05 1258.2 755.65 1257.85 756.3 1257.35 756.95 1256.3 759.5 1255.2 762.05 1255.05 765.2 1254.95 767.05 1256.2 767.55 1257 768.1 1258.65 767.6 1260.5 767.05 1264.3 764.4 1264.3 764.35 1264.4 764.3 1265.4 763.4 1266.75 762.3
L 1266.8 762.3
Q 1268.1 761.15 1270.45 759.35
L 1270.4 759.4 1271.05 758.9
Q 1271.1 758.85 1271.15 758.85 1282.7 748.6 1297.4 731.25
L 1297.45 731.2
Q 1301.1 726.65 1305.05 722.9 1308.5 719.45 1309.95 718.8 1314.95 716.65 1326.85 705.95
L 1326.85 705.9
Q 1338.6 695.2 1345.2 686.95 1353.05 677.1 1358 670.7 1371.4193359375 662.497265625 1377.45 657.75 1383.535546875 653.0021484375 1393.65 640.5 1403.756640625 628.0013671875 1406.8 624.1
L 1406.8 624.05
Q 1410.75 618.85 1415.7 608.1 1420.6 597.35 1422.55 589.5 1425.15 579.65 1426.4 569.85 1427.65 560.35 1428.4 545.1 1428.8 538.1 1429.8 529.8 1430.8 521 1431.95 515.75
L 1431.95 515.7
Q 1434.5 502.65 1434.65 484.1 1434.75 465.4 1432.3 452.15 1428.45 431 1419.55 410.65 1416.55 403.75 1412.95 396.9 1398.75 370.1 1373.75 341.2 1362.7 328.45 1360.55 324.35 1358.5 320.45 1356.85 309.45 1354.15 292.15 1347.6 276.4 1341.05 260.4 1329.35 243.15
M 1344.95 334.2
L 1344.95 334.15
Q 1340.6 330.3 1317.85 307.35 1294.35 283.45 1287 275.6 1286.65 275.25 1286.4 274.9 1288.6 276.55 1291.6 278.7
L 1291.55 278.7
Q 1301.75 286.35 1315.2 298.95 1328.65 311.7 1338.35 322.75 1343.6 328.65 1345.25 331.25 1346.55 333.4 1346.65 335.6 1346 335.05 1344.95 334.2
M 1362.95 350.65
Q 1366.9 354.85 1376.75 366.9 1393.4 387.75 1404.3 411.9 1404.9 413.2 1405.5 414.55 1411.4 428.35 1414.25 438.35 1417.25 448.55 1419.05 461.4 1420.55 472.6 1421.35 487.15 1419.7 480.75 1418.25 475.1 1414.6 460.2 1411.2 450.25 1407.85 440.25 1401.6 425.5
L 1401.6 425.45
Q 1398.25 417.7 1395 410.65 1380.4 379.35 1366.25 361.75
L 1366.2 361.75
Q 1361.95 356.5 1360.85 354.15
L 1360.8 354.1
Q 1359.75 351.95 1359.75 348.85
L 1359.8 347.2 1362.95 350.65
M 1363.9 382.7
Q 1366.8 387.05 1371.6 395.7 1376.25 404.15 1380.1 411.95 1380.15 412.05 1380.2 412.15
L 1380.2 412.1
Q 1397.7 447.65 1405.85 480.35 1414 512.75 1414.05 546.9 1414.05 565.6 1412.35 576.25 1410.6 586.9 1405.75 597.85
L 1405.7 598 1405.6 580.7
Q 1405.55 565.75 1404.95 558.6 1404.4 551.2 1402.85 543.45 1396.9 515.8 1381.55 477.45 1371 451.25 1366.15 430.7 1363.9 421.2 1362.5 411.05 1360.85 399.35 1360.25 386.85
L 1359.85 376.5 1363.9 382.7
M 996.15 37.45
Q 1000.5 38.05 1004.9 38.9 871.1 98.8 844.45 227.5 844.4 227.55 844.4 227.6 843.65 229.1 843 230.65 834.45 250 835.45 272.9
L 835.45 272.95
Q 836.05 290.15 841.65 302.55 847 314.75 863.85 337.65 879.1 358.25 884.45 368.25 889.9 378.45 898.8 403.15 900.4 407.7 901.95 411.8 906.95 425.35 910.7 433.35 915.45 443.4 923.15 455 930.45 466.1 943.75 479.7 956.9 493.3 979.45 513.15
L 979.5 513.15
Q 988.2 520.65 993.9 526.35 999.05 531.4 999.35 532.35 999.35 532.4 999.4 532.5 1000.05 535.3 1000.75 556.4 1001.6 578.35 1003.45 581.85
L 1003.5 581.9
Q 1004.3 583.75 1004.1 585.9
L 1004.1 585.95
Q 1003.9 588.5 1002.05 595.85 995.4 622.05 996.6 647.1 997.85 672.2 1006.95 693.05 1012.35 705.65 1020.2 715.95 1027.95 726.15 1042.45 739.8 1049.85 746.65 1056.4 753.8 1062.75 760.65 1064.75 763.7
L 1064.75 763.75 1068.85 769.85 1048.65 782.15
Q 1030.25 793.4 1018 799.7 1006.1 805.75 989.75 812.4 932.45 835.5 870.55 837.35
L 851.95 837.95 858.25 833.15
Q 876.2 819.7 888.55 802.9 901.15 785.85 901.05 774.75 901.05 770.1 898.8 766.45 896.3 762.4 892.8 761.8
L 892.75 761.8
Q 887.75 760.85 882.45 763.5 877.45 766 868.75 773.65 821.55 814.4 783.8 827
L 783.75 827 776.35 829.55 775.7 827.8 775.75 827.9
Q 774.9 824.95 773.35 824.55 772.15 823.85 769 824.45 765.5 825.05 764.9 824.65 764.9 824.6 764.85 824.6 764.85 824.1 767.15 821.95 775.75 814 781.5 792.85 787.1 772.05 785.75 753.85 784.65 737.25 779.15 718.4 773.7 699.45 767.25 689.75 765.7 687.4 762.3 683.45 758.9 679.45 755.75 676.15
L 750.6 670.9 775.1 670.25
Q 801.3 669.5 816.6 670.75 831.7 671.95 850.75 676.3
L 850.7 676.25
Q 869.45 680.6 882.5 681.45 895.75 682.35 908.65 680.2 954.9 672.7 967.55 646.9 973.6 634.95 970.45 624.55
L 970.45 624.5
Q 967.15 613.85 956.4 611
L 956.45 611.05
Q 952.3 609.75 946.4 610.9
L 946.35 610.9
Q 940.95 612 919.95 617.8 888.45 626.6 866.65 620.85 844.65 614.95 808.75 588.05 788.3 572.75 777.15 565.9 766.05 559.05 750.85 552.5 733.7 545.05 727.35 542.15
L 718.3 537.9 715.3 525.25
Q 712.5 513.8 711.3 506.35
L 711.3 506.45 710.8 501.85 717.1 499.15
Q 723.45 496.55 737.25 487.55 759 472.85 773.8 458.65 788.65 444.25 794.7 431.9 798.2 424.75 798.95 421.55 799.55 418.65 799.65 411.3
L 799.65 411.25
Q 799.65 410.15 799.65 408.95 799.65 400.55 799.15 397.25
L 799.15 397.2
Q 798.5 393.75 796.35 389.5 791.2 379.35 777.2 370.4 763.4 361.55 748.05 358.35 736.2 355.9 720.05 355.45 703.6 355 694 356.95 671.95 361.1 655.9 375.95 659.45 371.25 663.8 366.4 674.05 354.9 685.65 345.85 695.4 338.3 715.8 324.85 740.3 308.9 753.35 295.9 766.6 282.75 772.65 268.3 775.05 262.6 776.8 258.4 779.35 252.1 780.4 249.15 780.7 248.3 780.95 247.6 782.85 243.4 783.8 241.65
L 783.85 241.6 783.8 241.6
Q 784.65 239.95 785.5 238.3
L 785.55 238.3 785.55 238.25
Q 785.8 237.7 786.1 237.2 786.15 237.1 786.15 237.05
L 786.2 237
Q 845.55 119.05 821.95 45.55 830.45 43.6 839.95 42 852.9 39.8 854.4 39.6 854.55 39.55 854.7 39.55
L 854.8 39.55
Q 855.15 39.7 855.55 39.7
L 888.75 37.65
Q 888.8 37.65 888.85 37.65 890.4 37.4 892.35 37.25 900.3 36.35 913.8 35.45 933.75 34.1 957.5 34.7 981.15 35.3 996.15 37.45
M 1093.9 151.85
Q 1110.85 164.2 1125.65 191.95 1140.3 219.75 1144.6 247.5 1148.45 272.35 1142.3 306.7 1136.2 341.15 1122.9 369.9 1115.2 386.6 1103.4 405.85 1102.05 408 1100.5 410.45 1088.5 429.55 1064.5 464.8 1046.05 491.9 1034.85 511.95 1023.65 531.85 1015.75 551.4
L 1014.6 554.35 1015 538.75
Q 1015.3 528.9 1016 518.2 1016.75 507.6 1017.5 502.55 1019.45 490.3 1023.85 473.4 1028.35 456.45 1032.65 444.75 1037.2 432.4 1047.3 411.9
L 1047.3 411.95
Q 1047.85 410.8 1048.4 409.7 1059.3 387.65 1069.1 371.3 1084.55 345.35 1093.05 326.75 1101.55 307.8 1105.8 289.55 1110 272.45 1111.6 257.8 1113.25 243.25 1113.25 224.35 1113.25 209.15 1112.75 203.05 1112.25 196.75 1110.45 189.45 1108 179.45 1103.1 168.6 1098.2 157.85 1093.35 151.45 1093.6 151.65 1093.9 151.85
M 733.35 83.8
Q 748.9 73.55 757.45 69.2 766 64.7 783.55 57.75 796.8 52.45 808.8 49 830.65 118.5 774.2 230.8
L 774.2 230.75
Q 774.15 230.85 774.1 231 773.8 231.55 773.5 232.15 773.45 232.15 773.45 232.2
L 773.5 232.2
Q 772.65 233.75 771.85 235.4
L 771.85 235.35
Q 771.8 235.35 771.8 235.4
L 771.8 235.45
Q 770.75 237.4 768.7 241.95
L 768.7 241.9 768.6 242.1 768.6 242.15
Q 768.5 242.25 768.45 242.4 768 243.35 767.4 244.95 766.25 247.95 762.1 257.2 761 259.55 759.75 262.3 753.65 275.7 740.8 288.05
L 740.85 288.05
Q 727.8 300.4 710.75 311.65 703.9 316.25 698.4 319.7 701.65 315.8 703.7 311.2 705.4 307.2 705.7 304 708.35 305.55 712.65 301.05 716.35 297 720.45 289.05 725.15 279.75 726.85 272.2 728.45 264.65 728.45 252.05 728.45 242.85 727.85 238.5 727.3 234.05 725.35 228.5 720.5 214.85 712.45 206.15 704.35 197.25 693.6 193.95 686.65 191.75 677.9 191.45 668.95 191.15 663.05 192.75 657.7 194.2 653.95 198 649.6 202.25 650.75 205.7
L 650.75 205.65
Q 651.85 210.05 654.25 210 656 210.35 661.4 207.95 665.05 206.35 668.05 206 671.2 205.55 678.25 205.9 691.45 206.55 698.25 211.4
L 698.3 211.45
Q 705 216.5 710.85 229.95 713.65 236.5 714.2 240 714.7 243.5 714.7 255.2 714.7 264.6 714.2 269.55 713.7 274.55 712.45 278.7
L 712.45 278.75 711.65 281.35 711.25 279.9 711.25 279.95
Q 709.5 272.9 704.6 264.3 699.65 255.8 694.95 251.45
L 694.9 251.45
Q 685.45 242.95 671.55 239.65 657.5 236.25 645.75 239.65 634.55 242.95 627.3 250.05 619 258.05 623.95 262.7
L 623.95 262.75
Q 625.9 264.6 628.5 263.7 630.4 263.1 636.2 259.1 646.4 252.25 652.4 252.35 651.4 253.3 649.55 254.65 640.05 261.7 635.05 275.5 630.1 289.25 632.35 302.05 635.55 321.25 649.4 328 656.25 331.5 664.75 332.5 672.55 333.35 678.3 331.55 675 335.2 665.8 344.6 647.6 363.1 640.65 374.05
L 635.1 382.25 633.7 374.65
Q 632.15 366.45 630.95 355.9 629.75 345.4 627.75 323.15
L 627.75 323.1
Q 626.45 309.3 621.9 293.25 615.95 272.55 616.8 255.75 617.6 238.8 625.65 218.45 629.95 207.65 634.15 199.9
L 634.15 199.95
Q 638.35 192.25 648.8 176
L 648.8 176.05
Q 659.35 159.7 666.5 146.95 683.4 116.9 733.35 83.8
M 684.4 279.4
L 684.4 279.35
Q 684.1 276.25 684.75 275.3 685.8 274.45 687.75 275.25 690.05 276.15 690.75 278.15
L 690.75 278.2
Q 692 281.6 689.85 283.75 687.95 285.55 685.7 283.7
L 685.65 283.65
Q 684.65 282.6 684.4 279.4
M 691.75 371.3
L 691.8 371.3
Q 698.95 369.5 717.35 369.9 735.75 370.35 744.25 372.6 751.75 374.55 762 379.4 772.1 384.3 776.9 388.15
L 776.9 388.2
Q 778.8 389.8 780.8 392.35 782.8 394.85 783.65 396.8
L 783.65 396.85
Q 786 401.9 785.9 409.5 785.9 410.35 785.85 411.2 785.6 417.4 783.55 421.5 779.3 429.85 768.85 433.95 758.7 437.9 753.5 433.8
L 753.45 433.75
Q 752.55 432.9 751.65 431.15
L 751.65 431.2
Q 750.7 429.3 750.35 427.55
L 750.35 427.6
Q 749.3 421.6 745.45 417.9
L 745.45 417.85
Q 741.45 414.1 735.65 413.5 729.75 412.8 724.8 414.5 719.6 416.2 716.35 420.1 712.1 425.25 712.95 429.65 713.55 433.9 719.35 439.7 725.1 445.55 730.3 446.9 735.55 448.35 742.45 445.85
L 742.45 445.9
Q 745.85 444.7 747.1 444.65 748.1 444.7 749.7 445.75
L 749.65 445.7
Q 752.3 447.65 758.65 447.8
L 758.7 447.8
Q 763.05 447.85 765.9 447 763.65 449.15 759.4 453 750.05 461.4 742.65 466.95 735.1 472.7 721.1 481.65 709.75 488.9 708.55 490.05 708 487.8 705.75 476.65 701.8 456.4 700.65 452.15
L 700.65 452.2
Q 699.4 446.9 697.45 445.8 696.35 444.95 694.65 444.8 693.05 444.6 691.85 445.1 688.9 445.85 688.9 457.3 688.85 467.55 690.85 478.55
L 692.05 485.4
Q 689.75 483.55 685.8 480.25 668 465.45 660.15 453.35
L 660.2 453.35
Q 657.05 448.35 654.35 440.35
L 654.35 440.3
Q 651.6 432.4 651.55 428.35 651.55 426.95 651.7 426.6 651.7 426.55 651.75 426.5 651.95 426.55 652.75 426.7 652.8 426.7 652.85 426.7 653.75 426.75 654.1 427.4
L 654.1 427.35
Q 654.6 428.65 655 433.15 655.3 436.35 656 439.4 656.75 442.65 657.45 443.9 660.1 449.05 667.55 450.85
L 667.6 450.9
Q 675 452.55 679.8 449.1
L 679.85 449.1
Q 684.75 445.7 686.4 437.2 688 428.75 684.95 422.95 681.65 416.8 677.9 415.35 677.9 415.3 677.85 415.3 674.3 413.75 663.45 413.75
L 652.25 413.75 652.45 408.75
Q 652.75 402.55 655.35 397.7 658 392.8 664.6 386.6 676.4 375.1 691.75 371.3
M 912.15 270.25
L 912.15 270.2
Q 912.7 269.6 913.2 269.1 905.1 282.1 905.75 295.85
L 905.75 295.9
Q 906.3 310.75 917 322.35
L 917 322.4
Q 917.35 322.75 917.65 323.15 917.6 323.1 917.55 323.05
L 917.55 323.1
Q 913.5 321 909.85 317.8 906.1 314.5 901.7 309.3 898.5 305.45 897.95 303.9
L 897.9 303.85
Q 897.4 302.25 897.8 298.45 898.4 292.4 902.55 284.4 906.65 276.25 912.15 270.25
M 964.25 272.45
Q 966.95 272.85 968.85 275.75 968.85 275.8 968.9 275.8 970.1 277.9 970.25 279
L 970.25 279.05
Q 970.3 280.2 969.5 282.25 968.8 284.1 967.95 284.75 967.9 284.8 967.85 284.8 966.9 285.45 964.75 285.6 962.4 285.7 961.3 285.3
L 961.25 285.3
Q 960.1 284.8 958.85 283.15
L 958.85 283.1
Q 956.65 280.45 956.65 278.45
L 956.65 278.4
Q 956.75 276.5 958.85 274.55
L 958.8 274.55
Q 961.45 272.15 964.25 272.45
M 729.9 431.3
L 729.95 431.3
Q 732.2 431.25 734 433.25
L 734.05 433.25
Q 734.5 433.8 734.85 434.3 733.95 434 731.9 433.4
L 731.95 433.4
Q 728.75 432.3 728.45 432.35 728.55 431.3 729.9 431.3
M 667.95 431.8
L 668 430.55 668.45 431.1 668.5 431.1
Q 669.65 432.4 670.55 434.05
L 670.5 434
Q 671.2 435.35 671.25 436 671.25 436.65 671 437.35 670.95 437.35 670.95 437.4 670.8 437.7 670.75 437.9
L 670.7 437.9
Q 669.95 438.2 669.3 437.2 667.95 435.2 667.95 431.8
M 654.15 470.55
Q 658.6 476.8 670.55 487.4 682.4 497.9 689.3 501.7
L 689.25 501.7
Q 695.7 505.55 696.45 506.55
L 696.5 506.6
Q 696.85 507.2 697.7 510.05
L 697.75 510.05
Q 698.7 513.3 699.4 516.95
L 699.4 517
Q 701.8 528.1 704.5 534.95
L 706.9 541.8 699.5 544.25
Q 681.4 549.95 668.55 563.65 655.5 577.5 654 592.75 653.35 598.75 654.75 606.9 656.05 614.95 658.95 621.45 659.9 623.7 660.4 625.55 660.55 626.1 660.8 626.25 659.65 626 653.6 624.2 645.55 621.75 640.7 619.3
L 640.7 619.25
Q 631.55 614.6 623.8 600.95 615.85 587 610.05 564.85 605.7 548.15 605.65 529.15 605.65 510.15 610 490.2 613.35 474.65 627 436.15 632.4 420.8 635.95 411.8 636.95 409.15 637.85 407.05 637.65 408.9 637.6 411.2 637.45 415.65 637.8 421.9 638.5 434 640.45 442.4 643.9 456.65 654.15 470.55
M 689.3 563.9
L 689.35 563.9
Q 698.1 559.55 710.65 559.2 723.35 558.75 735.85 562.45 743.3 564.6 756.2 570.9 768.9 577.05 777.15 582.55 784.25 587.35 800.5 600 828 621.35 846.65 629.6 865.35 637.8 886.7 637.85 897.25 637.85 907.25 636 917.3 634.05 933.9 628.9 950.15 624.05 951.6 624 953.2 624.2 955.7 627.55 958.45 631.25 958.55 633.75 958.45 637.25 954.55 642.6
L 954.55 642.65
Q 950.45 648.3 944.95 652
L 944.95 652.05
Q 929.9 662.4 908.3 665.65 886.5 668.9 864.65 664.15 854 661.7 843.8 659.6 829.7 656.55 816.9 655.8 803.85 655.05 784.1 656.15 747.3 658.25 726.2 653.4 705.3 648.5 687.05 633.85 679.6 627.8 676.6 623.45 673.6 619 671.05 610.15 668.45 601.55 667.4 599.5
L 667.4 599.6
Q 664.45 592.75 671.4 581.15 678.65 569.1 689.3 563.9
M 876 785.7
Q 884.7 778.2 887.4 776.1 883.85 788.65 870.85 803.6 857.8 818.45 839.65 830.7 832.85 835.2 830.7 835.95 828.65 836.55 823.35 836.1 815.15 835.4 807.1 833.9
L 807.05 833.9 804.1 833.35
Q 817.3 828.55 836.3 816.05 855.9 803.15 876 785.7
M 821.1 849.9
Q 820.25 850.7 818.05 855.55 811.1 870.7 811.1 885 811.2 899.45 818.3 909.9
L 819.8 912.1 817.15 912.1
Q 803.3 912.1 781.05 905 758.7 897.9 739.65 887.45 731.25 882.8 721.05 872.85 710.9 862.85 706.5 854.9 700.7 844.2 697.25 828.65 693.85 813.2 695.15 804.2
L 695.15 804.25 695.55 801.9 699.6 805.7
Q 702.2 808.15 706.9 811.7 711.6 815.3 715.55 817.85 719.65 820.4 726.6 823.85 733.5 827.3 739.25 829.55 747.6 832.85 749.95 834.2 751.1 834.9 751.25 835.25 751.2 835.25 751.2 835.3 750.85 836.35 751.15 838.25
L 751.15 838.3
Q 751.4 839.95 752.05 841.3 752.05 841.35 752.1 841.4 753.55 843.9 756.15 844.25
L 756.2 844.25
Q 758.2 844.5 767.1 843.9 779.35 843.2 787.75 844.9
L 787.75 844.85
Q 796.55 846.9 809.25 848.3 818.7 849.5 821.1 849.9
M 1328.8 293.1
Q 1316.85 281.25 1303.95 270.8 1290.75 260.15 1283.6 256.55 1278.3 253.8 1274.05 254.7 1269.6 255.5 1266.95 260
L 1264.55 264.15
Q 1264.35 264.5 1264.35 264.85 1264.35 265.2 1264.5 265.55
L 1267.8 272.35 1267.8 272.4
Q 1270.45 277.75 1278.55 286.65 1286.55 295.4 1324.15 334.1
L 1346.65 357.5 1346.65 375.05
Q 1346.65 394.85 1348.65 411.45 1349.7 420.15 1351.35 428 1356 450.65 1368.8 482.55 1376.1 500.65 1381.9 519.25 1387.7 537.8 1390.4 551.6 1392.65 562.9 1392.65 583.85 1392.7 604.55 1390.55 613.95
L 1390.55 614
Q 1388.1 625.05 1385 631.7 1382 638.1 1371.7 648.4 1367.65 652.35 1366.2 653.3 1366.05 652.95 1367 650.55 1374.25 632.15 1373.35 615.55 1372.65 603.7 1368.9 597.55 1364.6 590.25 1358.65 593.5 1355.6 595.2 1355.65 597.65 1355.55 599.4 1357.6 605.95 1359.2 611.4 1359.4 620.35 1359.5 629.25 1358.05 635.5 1356.35 642.4 1350 655 1343.6 667.75 1338.25 674.8 1333.15 681.5 1321.8 693.8 1316.7 699.2 1313.8 702.15 1315.1 699.5 1317.25 694.85 1326.5 675.3 1330.55 658.7 1334.65 642 1335.4 620.55 1336.3 595.4 1332.75 576.4 1329.2 557.15 1319.3 534.1 1312.35 518 1304.95 505.15 1297.55 492.25 1285.65 475.5 1272.05 456.4 1266.55 447.25 1259.4 435.5 1255.4 422.55 1253.5 416.55 1252.5 411 1251.35 404.55 1251.35 398.7 1251.35 394.45 1250.8 392.7 1250.2 390.6 1248.25 389.4 1248.15 389.35 1248.1 389.3 1244.95 387.75 1244 388.15 1243.9 388.15 1243.85 388.2 1243 388.3 1240.45 391.05
L 1240.4 391.1
Q 1237.9 393.85 1237.3 402.55 1237 406.7 1237.6 411.45 1238.8 421.1 1243.7 433.25
L 1243.7 433.3
Q 1250.85 450.95 1264.55 470.3 1279.3 491.2 1287 503.15 1294.5 515.05 1298.9 524.25 1312.05 551.75 1317.8 576.8 1323.55 601.9 1322.35 626.25 1321.4 644.75 1317.2 659.9 1313 675.05 1303.35 694.55 1296.15 709.1 1287.4 721.6 1282.65 728.25 1277.15 734.85 1280.35 714.75 1279 691.7
L 1279 691.65
Q 1278.95 690.95 1278.8 690.35 1279.25 687.45 1279.65 684.6 1281.2 672.6 1279.8 667.2
L 1279.8 667.15
Q 1278.65 662.15 1274.9 659.95 1272.75 658.6 1271.1 658.9 1269.2 659.05 1268 661.05 1267.95 661.1 1267.95 661.15 1267.45 661.85 1267 666.9 1266.55 671.6 1266.5 677.2 1266.15 698.8 1257.8 718.85 1249.3 738.9 1233.75 755.35 1221.9 768 1207.65 776.35 1231.65 729.65 1219 682.65 1218.65 681.5 1218.05 680.6 1218.6 671.95 1218.2 660.9 1217.4 635.25 1209.65 613.25 1201.95 591.25 1183.5 562.1 1179.45 555.75 1174.15 544.6 1168.9 533.45 1166.5 526.15 1161.35 510.55 1160.95 494.05
L 1160.95 494
Q 1160.5 477.4 1164.85 461.1 1167.35 451.7 1167.15 448.25 1166.95 444 1163.35 442.15 1158.2 439.4 1155.2 444.1 1152.7 447.75 1149.35 460.85 1146.7 471.35 1146.85 491.1 1147 510.75 1149.9 521.1 1152.95 532.3 1157.75 542.85
L 1157.75 542.8
Q 1162.45 553.4 1171.3 568.7 1182.5 588.3 1187.9 599.3
L 1187.9 599.35
Q 1193.55 610.65 1197.45 621.75 1205.6 645.25 1205.45 667.05 1205.35 688.9 1196.95 712.35 1192.1 725.85 1187.4 735.15
L 1187.4 735.1
Q 1182.5 744.45 1175.45 753.9
L 1175.45 753.95
Q 1169.7 761.8 1156.5 775.45 1150.3 781.85 1146.8 785.15 1148.55 782.3 1150.85 778 1154.95 770.15 1157.5 763.45 1162.6 750 1163.8 735.8 1165 721.7 1162.55 704.95 1160.75 693.05 1157.8 688.9 1155.8 686.1 1153.55 686.3 1151.35 686.25 1149.15 689
L 1149.2 689
Q 1147.8 690.3 1148 694.7 1148.15 698.2 1149.5 707.75 1151.2 720.85 1150.85 730.6 1150.4 740.25 1147.6 751.45 1144.45 763.8 1136.15 777.7 1127.9 791.8 1117.25 802.65 1111.7 808.35 1110.2 810.75 1108.1 813.85 1109.45 815.8 1109.5 815.85 1109.55 815.9 1110.2 816.9 1111.85 817.95
L 1111.8 817.95
Q 1113.3 818.85 1114.65 819.05 1118 819.7 1126.9 815.25 1135.2 811.05 1141.55 805.9
L 1141.55 805.85
Q 1142.05 805.45 1142.55 805.1 1139.5 808.1 1134.7 812.5 1120.55 825.45 1111.1 831.55 1091.55 844.35 1056.05 860.5 1020.35 876.7 986.55 888.1 953.15 899.2 915.55 906.35 877.85 913.35 851.45 913.35
L 837.5 913.35 834.45 909.85
Q 833.1 908.2 831.2 905.1 829.3 901.85 827.95 899.1
L 828 899.15
Q 823.25 888.75 825.7 875.65 828.15 862.45 836.15 855.5
L 836.2 855.5 840.9 851.6 865.2 851.35
Q 885.15 851.15 899.45 849.55 913.55 847.95 932.4 843.75 969.2 835.45 998.95 823.25 1028.65 811 1056.05 792.75 1068.7 784.45 1071.95 782.4 1072 783.7 1071.9 785.9 1071.6 791.9 1070.3 796.2
L 1070.25 796.25
Q 1069.65 798.5 1068.2 801.4 1066.8 804.35 1065.4 806.4
L 1065.45 806.4
Q 1062.25 811 1062 814.3 1061.65 818 1064.65 820.55 1064.65 820.6 1064.7 820.6 1068 823.55 1071.75 822.8
L 1071.8 822.8
Q 1075.05 822.1 1080.35 817.7
L 1091.8 808.15
Q 1099.9 801.4 1104.15 789.6 1108.15 778 1107.45 763.7 1106.9 752.5 1104.45 745.1 1102 737.8 1091.8 716.35 1083.15 698.3 1080.2 690.5 1077.4 682.9 1075.45 672.85 1072.6 658.5 1074.6 643.8 1076.45 629.05 1083.15 612.65 1087.7 601.5 1088.45 597.05 1089.5 591.1 1086 590.1 1082.05 588.35 1078.35 592.9 1075.3 596.5 1071.7 605.85
L 1071.7 605.9
Q 1062.45 630.15 1061 651.35 1059.55 672.55 1065.9 691.45 1068.6 699.25 1079.65 722.7 1084.4 732.5 1088.15 741.1 1091.9 749.85 1092.65 752.55
L 1092.65 752.6
Q 1095.4 761.95 1094.15 772.45 1092.9 782.85 1088.1 791.2
L 1088.05 791.25
Q 1086.75 793.35 1085.85 794.7 1085.65 792.2 1085.55 787.85 1085.5 778.35 1083.4 770.1 1081.35 761.6 1077.6 755.9
L 1077.65 755.9
Q 1076.3 753.8 1069 746.05 1061.95 738.5 1053.1 729.85 1036.35 713.3 1030.1 704.75
L 1030.05 704.75
Q 1023.85 696.25 1018.15 682.05 1013.3 669.95 1011.75 661.25 1010.2 652.5 1010.2 637.65 1010.2 621.85 1012.1 611.45
L 1012.1 611.4
Q 1013.9 600.8 1020.35 581.2
L 1020.35 581.15
Q 1030.3 549.85 1043.45 524.95 1056.55 500.1 1084.8 458.9 1101.8 434 1109.4 422.1 1112.55 417.15 1115.6 412.05 1120.1 404.5 1124.45 396.7
L 1124.4 396.7
Q 1141.7 365.5 1150.55 333.55 1159.4 301.45 1159.4 270.05 1159.4 242.9 1152.35 219.65 1145.35 196.3 1129.45 170.5 1120.3 155.8 1109.65 146 1098.9 136.15 1084.8 129.6 1076.05 125.55 1071.4 125.35 1065.8 125.05 1063.45 129.4 1061.15 133.45 1063.4 137.75
L 1063.35 137.75
Q 1065.2 141.45 1073.05 149.3 1085.7 161.75 1093 179.45
L 1092.95 179.45
Q 1099.3 195.1 1099.75 222.5 1100.2 250 1094.55 277.6 1090.2 298.2 1082.5 316.9 1074.7 335.55 1059.2 362.55 1043.85 389.15 1033.65 410.6 1032.85 412.2 1032.15 413.75
L 1032.15 413.7
Q 1021.4 436.5 1014.35 458.25 1010.7 469.1 1006.75 485.4 1002.8 501.75 1001.9 509.35
L 1001.4 513.5 988.9 502.35
Q 973.65 488.75 957.8 473.15 939.6 455.3 931.1 441.15 924.85 430.7 916.95 410.7 914.1 403.55 911.05 395.2 902.85 372.6 894.6 357.45 890.05 349.2 883.35 339.3 883.65 338.5 883.8 337.65 885.2 327.1 888.95 317.25 891.85 320.3 896.05 324.1
L 896.05 324.15
Q 917.2 343.2 941.85 344.15 966.7 345.1 984.1 327.2 990.6 320.5 993.4 312.7 996 305.05 996.6 291.45
L 997.05 280.55 998.85 282.25
Q 1000.55 283.85 1003.2 287.55 1005.8 291.1 1007.9 294.7
L 1007.95 294.7
Q 1013.6 304.05 1017.2 304.7 1020.45 305.5 1023 303.75
L 1022.95 303.8
Q 1025.85 301.95 1025.8 298.8 1025.95 293.4 1015.5 281.55 1005.6 270.3 990 257.45 976.45 246.35 961.45 242.55 946.45 238.65 931.95 242.55 920.1 245.7 909.8 253.3 899.5 260.95 894.8 269.15 890.1 277.15 885.65 289.3 883.7 294.5 882.8 298.4 876 310.75 872.65 324.2 871.75 322.95 870.8 321.7 859.35 306.6 854.35 294.05 849.4 281.5 849.4 267.8 849.55 244.9 859.9 227.3
L 859.9 227.35
Q 870.25 209.8 889.15 200.6 899.85 195.4 908.65 193.5 917.4 191.55 927.2 192.3 937.45 193 945.45 195.15 953.65 197.4 964.75 202.6 974.35 207.1 977.9 207.5 980.35 207.75 981.6 206.6 982.95 205.5 982.95 203.05 983.3 196.55 963.7 186.95 953.55 182 944.2 179.7 934.85 177.45 924 177.45 910.15 177.45 894.7 182.85 879.25 188.2 869.4 196.45 867.3 198.15 865.4 199.95 901.4 93.95 1025.35 44.35
L 1025.4 44.35
Q 1025.8 44.15 1026.2 43.95 1039.85 47.9 1053.75 53.65 1083 65.8 1121.85 89.55 1181.65 126.2 1220.3 155.95 1259.05 185.8 1289.35 218.7 1304.65 235.35 1309.5 241.2 1314.7 247.55 1321.05 257.3 1329.85 270.65 1334.45 281.4 1338.65 291.35 1341.9 305.45 1338.7 302.8 1328.8 293.1 Z" transform="scale(1.502968362515969, 1.5029605025633619)"/></g></defs><g transform="matrix(1.502968362515969, 0, 0, 1.5029605025633619, 0, 0)"><use xlink:href="#Layer0_0_FILL" transform="scale(1.502968362515969, 1.5029605025633619)"/></g></svg>