<svg xmlns="http://www.w3.org/2000/svg" version="1.1" xmlns:xlink="http://www.w3.org/1999/xlink" preserveAspectRatio="none" x="0px" y="0px" width="1512px" height="1573px" viewBox="0 0 1512 1573"><g transform="translate(-643.72, -32.65)"><defs><g id="Layer0_0_FILL"><path fill="#000000" stroke="none" d="M 1997.97 365.44 Q 1989.10 352.37 1959.57 320.96 1930.19 289.47 1904.86 266.02 1879.46 242.35 1831.67 206.58 1786.50 172.77 1752.69 151.35 1771.62 156.31 1782.14 160.37 1794.77 165.33 1799.13 170.44 L 1799.13 170.51 Q 1803.26 175.32 1808.00 176.37 L 1808.07 176.45 Q 1812.73 177.50 1816.26 174.94 1816.26 174.87 1816.34 174.87 1819.79 172.09 1819.79 167.20 1819.87 162.32 1815.89 157.21 1811.15 151.12 1795.30 144.51 1779.89 137.97 1746.07 127.90 1709.63 116.70 1695.65 111.14 1681.30 105.43 1653.27 90.70 1591.12 58.31 1547.83 45.84 1542.20 44.26 1536.94 42.98 1490.49 31.71 1411.66 32.24 1391.22 32.24 1372.29 32.61 1354.70 32.91 1351.77 33.22 1334.19 34.72 1320.58 35.85 1281.36 39.15 1245.28 45.77 1245.06 45.77 1244.83 45.84 1208.76 52.38 1184.79 60.64 1165.10 67.48 1139.10 80.93 L 1139.02 80.93 Q 1113.10 94.31 1089.50 109.94 1063.58 127.15 1047.79 139.93 L 1047.87 139.93 Q 1031.41 153.00 1016.68 168.78 L 1016.76 168.78 Q 1010.90 174.79 1005.56 179.53 1000.68 183.81 999.17 184.41 L 999.10 184.49 Q 984.37 189.22 937.18 213.50 889.83 237.77 862.18 254.98 L 862.25 254.98 Q 848.20 263.54 835.27 274.82 821.97 286.24 818.67 292.70 L 818.67 292.78 Q 814.91 299.99 815.89 304.88 816.79 310.21 822.80 312.84 L 822.88 312.84 Q 832.95 317.27 856.02 310.96 860.90 309.53 864.13 308.71 862.93 309.91 861.50 311.34 L 861.43 311.34 Q 811.83 360.26 791.84 392.05 771.62 423.76 762.76 467.57 759.90 481.10 759.45 495.68 758.85 510.86 759.22 563.08 L 759.22 563.16 Q 759.60 599.83 759.45 618.09 759.37 624.03 759.22 628.01 758.77 643.57 756.89 652.06 748.78 685.65 730.07 712.93 L 730.07 713.00 Q 725.86 719.54 701.66 755.16 L 701.66 755.24 Q 687.23 777.11 674.23 802.73 661.16 828.66 655.07 847.82 647.78 871.12 645.45 887.87 643.05 904.56 643.72 928.08 644.10 940.10 645.37 949.87 646.88 961.67 649.73 970.24 654.77 985.57 670.85 1009.99 673.40 1013.82 674.98 1018.93 L 674.91 1018.93 Q 676.41 1024.27 677.61 1033.44 680.17 1054.25 685.65 1072.81 691.22 1091.45 700.23 1109.86 714.59 1139.77 731.95 1157.43 749.08 1175.09 778.16 1189.74 787.63 1194.55 795.37 1197.63 804.01 1201.24 806.04 1200.72 810.10 1200.04 811.38 1197.56 812.88 1195.23 811.60 1191.25 809.65 1185.31 799.13 1172.23 777.64 1145.71 768.99 1114.90 765.31 1101.52 762.53 1082.36 759.60 1062.89 759.60 1050.95 759.60 1032.68 765.01 1010.37 770.42 988.12 779.06 971.14 786.88 955.58 782.67 948.67 L 782.75 948.67 Q 780.12 943.86 775.23 945.36 771.55 946.26 766.29 951.90 756.07 962.65 747.95 993.23 739.91 1023.37 739.91 1050.72 739.91 1078.60 747.28 1109.26 754.57 1139.85 765.84 1158.78 L 765.84 1158.71 Q 767.04 1160.81 768.09 1162.62 765.16 1160.36 760.65 1156.75 737.58 1137.89 720.75 1104.30 694.52 1051.17 699.78 997.51 705.04 943.63 744.42 864.13 750.51 852.03 755.09 841.43 759.75 830.46 759.60 828.43 759.60 822.27 755.24 820.84 L 755.32 820.92 Q 751.41 819.04 745.92 822.57 741.49 825.13 725.63 856.31 710.23 886.30 701.29 908.84 694.82 925.22 688.06 950.47 681.15 975.87 681.22 983.16 681.22 986.17 681.07 987.97 679.49 985.57 676.71 979.40 669.35 963.25 667.09 949.27 664.61 935.22 665.51 912.97 666.64 884.27 672.95 861.57 679.42 838.80 694.97 808.07 705.79 786.57 733.37 745.77 761.18 704.74 780.12 682.19 799.13 659.42 809.95 640.94 L 809.95 641.01 Q 815.66 631.32 821.37 619.07 826.71 607.72 831.97 594.20 840.84 572.03 846.70 545.72 852.41 519.50 852.41 501.76 852.41 490.27 850.00 485.76 L 850.00 485.68 Q 847.07 480.05 840.16 481.17 L 840.23 481.10 Q 836.18 481.55 834.82 483.80 L 834.82 483.88 Q 833.70 485.31 833.10 490.34 L 833.10 490.42 Q 829.94 533.25 816.71 573.68 809.12 596.53 798.90 617.12 791.09 632.67 781.77 646.95 L 781.77 646.87 Q 778.76 651.31 776.66 654.39 777.26 650.03 778.16 645.30 779.74 635.60 780.27 622.15 780.34 620.27 780.42 618.17 780.64 605.17 780.27 584.28 779.29 514.39 780.04 497.40 780.79 480.35 785.68 461.78 791.01 441.49 800.26 422.11 809.50 402.72 821.30 386.79 826.03 380.55 838.36 366.80 850.83 352.74 863.53 339.67 889.16 312.99 896.22 304.27 L 896.30 304.27 Q 903.66 294.96 903.51 289.24 903.51 279.70 896.60 279.48 L 896.52 279.48 Q 891.34 279.17 872.77 285.41 853.16 292.03 845.72 293.75 L 845.65 293.75 Q 843.54 294.28 842.11 294.51 843.62 292.78 847.45 289.55 L 847.37 289.55 Q 854.44 283.68 865.63 276.17 877.96 268.13 933.49 238.44 973.77 216.80 985.95 210.94 984.74 212.82 983.17 215.37 976.70 225.37 963.40 245.43 934.77 288.49 923.65 311.86 912.30 335.76 907.64 362.89 903.73 384.23 905.84 404.82 907.94 425.11 917.11 456.22 L 917.19 456.22 Q 919.97 465.62 921.47 475.31 922.82 485.08 923.65 500.56 925.08 522.58 929.51 547.23 933.87 572.33 938.98 586.76 L 942.44 597.20 927.78 635.45 Q 906.89 689.86 899.23 719.39 891.26 749.15 888.63 784.92 886.23 815.81 895.92 855.11 905.61 894.49 922.30 920.71 932.67 937.17 945.82 945.59 958.89 953.78 980.99 958.14 1005.49 962.80 1012.02 966.03 L 1011.95 966.03 Q 1018.34 969.41 1032.69 984.14 1049.37 1001.50 1054.33 1012.62 1059.07 1023.74 1058.84 1044.48 1058.84 1056.13 1057.86 1062.22 1056.89 1068.15 1053.51 1076.80 L 1053.51 1076.87 Q 1035.62 1124.97 990.98 1160.81 L 991.96 1159.01 Q 1000.00 1142.93 1005.71 1119.25 1011.57 1095.36 1011.65 1077.55 L 1011.65 1077.47 Q 1011.87 1066.35 1009.84 1061.09 L 1009.84 1061.01 Q 1007.29 1054.40 1001.65 1054.55 996.02 1054.33 993.39 1061.47 991.28 1066.95 990.53 1080.18 988.95 1106.33 980.69 1131.88 972.35 1157.13 960.55 1172.16 954.01 1180.27 935.07 1195.08 L 935.07 1195.00 Q 915.98 1209.66 904.26 1215.82 L 904.26 1215.74 Q 875.25 1230.25 848.05 1225.66 L 847.15 1225.51 849.18 1224.31 849.25 1224.31 Q 856.39 1220.10 863.76 1210.18 870.97 1200.64 876.68 1188.09 889.91 1158.63 889.16 1120.98 888.48 1083.11 873.98 1061.69 869.84 1055.30 867.51 1053.65 L 867.44 1053.65 Q 864.88 1051.70 859.62 1051.70 854.51 1051.70 852.93 1052.97 850.60 1054.03 850.15 1057.93 L 850.23 1057.86 Q 849.70 1060.19 851.28 1064.10 L 851.36 1064.10 Q 852.71 1067.40 854.96 1070.26 L 855.04 1070.33 Q 861.65 1079.28 864.51 1091.30 867.36 1103.77 867.36 1124.06 867.59 1158.11 857.74 1178.92 847.97 1199.59 825.05 1214.02 817.69 1218.75 815.13 1221.46 811.83 1224.76 811.90 1228.22 811.68 1235.81 821.90 1240.24 830.62 1244.15 851.28 1246.56 873.98 1249.49 894.04 1243.10 L 894.12 1243.10 Q 913.88 1236.56 937.33 1219.05 943.71 1214.17 954.46 1207.25 L 954.38 1207.25 Q 965.28 1200.26 974.00 1195.30 1012.85 1173.14 1037.35 1145.41 1061.92 1117.60 1073.72 1082.58 1080.03 1063.65 1080.11 1039.67 L 1080.11 1039.60 Q 1080.33 1015.40 1073.95 1002.25 1073.12 1000.67 1072.59 999.47 L 1083.72 1002.17 Q 1094.16 1004.80 1098.07 1007.13 L 1097.99 1007.13 Q 1101.90 1009.61 1112.35 1020.36 1125.05 1033.51 1133.16 1045.61 1141.20 1057.48 1146.16 1070.48 1155.93 1096.18 1158.86 1120.83 1161.87 1145.26 1157.81 1167.05 1150.97 1203.35 1138.80 1222.81 L 1138.80 1222.88 Q 1134.44 1229.87 1132.71 1231.30 L 1132.64 1231.38 Q 1131.36 1232.20 1129.33 1231.68 L 1129.26 1231.68 Q 1123.62 1230.32 1106.26 1221.83 1088.75 1213.26 1081.69 1208.53 L 1081.69 1208.61 Q 1072.29 1202.07 1062.90 1192.07 1053.81 1182.23 1050.95 1175.62 1048.47 1170.05 1046.67 1168.48 1046.67 1168.40 1046.59 1168.40 1044.41 1166.15 1040.73 1166.75 L 1040.73 1166.67 Q 1037.57 1166.97 1034.87 1170.51 1032.76 1173.21 1029.91 1179.97 L 1029.83 1180.05 Q 1026.75 1187.71 1025.93 1194.33 L 1025.85 1194.40 Q 1025.17 1200.26 1024.95 1217.77 1024.95 1240.17 1027.80 1253.17 1030.51 1266.02 1039.23 1284.13 1045.16 1296.45 1052.38 1306.82 1051.85 1306.67 1051.33 1306.67 1048.77 1306.30 1045.01 1309.15 L 1044.94 1309.15 Q 1038.85 1313.51 1023.52 1331.32 993.24 1366.34 979.48 1385.73 965.88 1404.59 955.66 1426.31 L 955.66 1426.38 Q 938.53 1462.98 938.23 1501.83 938.23 1509.87 938.60 1516.04 939.20 1525.66 940.86 1530.77 L 940.86 1530.84 Q 944.09 1540.91 952.06 1539.71 L 952.13 1539.71 957.39 1539.18 Q 958.29 1539.11 958.89 1538.43 959.42 1537.75 959.42 1536.85 L 959.04 1522.65 Q 958.89 1519.34 958.97 1515.89 958.97 1503.49 960.85 1488.53 963.18 1469.67 967.08 1455.69 L 967.08 1455.77 Q 974.60 1430.07 987.07 1409.63 999.62 1388.89 1028.78 1354.92 1047.72 1332.68 1052.68 1325.16 L 1052.75 1325.09 Q 1057.49 1317.57 1056.66 1312.69 1063.73 1321.78 1071.92 1329.29 1091.38 1347.10 1126.25 1363.79 1165.78 1382.57 1203.35 1389.26 1240.85 1395.80 1288.72 1392.57 1350.87 1388.13 1420.08 1372.43 1489.22 1356.65 1546.93 1333.50 1604.72 1310.43 1649.28 1285.86 L 1649.28 1285.78 Q 1694.00 1260.91 1715.49 1239.87 1728.71 1227.02 1736.91 1215.67 1745.25 1203.95 1752.54 1188.24 1755.84 1181.03 1759.83 1174.56 1763.51 1168.33 1765.46 1166.52 L 1765.54 1166.45 Q 1778.84 1154.12 1793.34 1129.25 1807.70 1104.75 1817.77 1077.32 1818.07 1076.50 1818.37 1075.74 1819.64 1126.09 1801.83 1152.55 1781.92 1181.85 1780.27 1183.28 1777.18 1185.08 1778.46 1191.02 1779.36 1196.81 1787.03 1197.63 1787.10 1197.63 1787.25 1197.63 1789.96 1197.71 1792.21 1197.48 1794.54 1197.26 1795.97 1196.73 1801.23 1195.15 1809.95 1191.02 1823.55 1184.63 1834.15 1177.42 L 1841.14 1172.68 1847.90 1176.29 Q 1858.19 1181.78 1864.58 1187.71 1870.82 1193.65 1880.51 1206.65 1898.78 1231.23 1913.20 1258.35 1927.33 1285.11 1933.49 1306.52 L 1933.49 1306.45 Q 1936.20 1316.07 1936.95 1323.51 1937.78 1331.40 1937.63 1348.46 1937.63 1366.64 1936.80 1373.48 L 1936.73 1373.56 Q 1935.97 1380.02 1932.82 1389.04 1919.82 1425.26 1886.23 1461.18 1859.32 1489.66 1823.03 1514.01 1813.56 1520.39 1803.49 1526.48 1766.66 1548.73 1727.06 1562.18 1687.46 1575.63 1637.71 1582.99 1617.04 1585.92 1609.08 1588.78 L 1609.15 1588.78 Q 1599.31 1591.94 1599.76 1597.35 1599.46 1602.98 1607.27 1605.01 1613.29 1606.59 1625.46 1605.61 1648.83 1603.73 1695.57 1592.09 1788.98 1568.64 1854.96 1517.69 1869.77 1506.12 1883.29 1493.27 1910.72 1467.11 1927.71 1442.84 1944.62 1418.57 1954.16 1391.82 1959.04 1377.76 1960.02 1355.22 1961.00 1332.60 1957.47 1316.37 1947.47 1271.20 1917.49 1222.66 1887.28 1173.36 1860.98 1160.14 L 1857.44 1158.26 1869.17 1145.86 Q 1887.20 1126.92 1897.35 1109.18 1898.02 1107.98 1898.62 1106.86 1896.67 1119.10 1894.42 1125.79 1891.03 1135.71 1890.51 1136.69 1889.76 1137.67 1888.18 1141.50 1886.53 1145.33 1886.30 1150.07 1886.15 1152.85 1888.03 1153.60 1889.23 1154.42 1891.71 1153.67 1894.49 1152.85 1900.20 1148.86 1900.20 1148.79 1900.35 1148.71 1901.86 1147.36 1903.89 1145.71 L 1903.96 1145.71 Q 1905.91 1143.98 1909.45 1141.27 L 1909.37 1141.35 1910.35 1140.60 Q 1910.42 1140.52 1910.50 1140.52 1927.86 1125.12 1949.95 1099.04 L 1950.03 1098.96 Q 1955.51 1092.13 1961.45 1086.49 1966.63 1081.30 1968.81 1080.33 1976.33 1077.10 1994.21 1061.01 L 1994.21 1060.94 Q 2011.87 1044.86 2021.79 1032.46 2033.59 1017.65 2041.03 1008.04 2061.20 995.71 2070.26 988.57 2079.41 981.44 2094.61 962.65 2109.80 943.86 2114.38 938.00 L 2114.38 937.92 Q 2120.31 930.11 2127.75 913.95 2135.12 897.79 2138.05 886.00 2141.96 871.19 2143.83 856.46 2145.71 842.18 2146.84 819.26 2147.44 808.74 2148.94 796.27 2150.45 783.04 2152.18 775.15 L 2152.18 775.08 Q 2156.01 755.46 2156.23 727.58 2156.38 699.48 2152.70 679.56 2146.92 647.78 2133.54 617.19 2129.03 606.82 2123.62 596.53 2102.28 556.25 2064.70 512.81 2048.09 493.65 2044.86 487.49 2041.78 481.62 2039.30 465.09 2035.24 439.09 2025.40 415.42 2015.56 391.37 1997.97 365.44 M 2021.42 502.29 L 2021.42 502.21 Q 2014.88 496.43 1980.69 461.93 1945.37 426.01 1934.32 414.22 1933.79 413.69 1933.42 413.16 1936.73 415.64 1941.23 418.88 L 1941.16 418.88 Q 1956.49 430.37 1976.70 449.31 1996.92 468.47 2011.50 485.08 2019.39 493.95 2021.87 497.86 2023.82 501.09 2023.97 504.39 2023.00 503.57 2021.42 502.29 M 2048.47 527.01 Q 2054.41 533.33 2069.21 551.44 2094.24 582.77 2110.62 619.07 2111.52 621.02 2112.42 623.05 2121.29 643.79 2125.57 658.82 2130.08 674.15 2132.79 693.47 2135.04 710.30 2136.24 732.17 2133.76 722.55 2131.58 714.06 2126.10 691.66 2120.99 676.71 2115.95 661.68 2106.56 639.51 L 2106.56 639.43 Q 2101.53 627.79 2096.64 617.19 2074.70 570.15 2053.43 543.70 L 2053.36 543.70 Q 2046.97 535.81 2045.31 532.27 L 2045.24 532.20 Q 2043.66 528.97 2043.66 524.31 L 2043.74 521.83 2048.47 527.01 M 2049.90 575.18 Q 2054.26 581.72 2061.47 594.72 2068.46 607.42 2074.25 619.14 2074.32 619.29 2074.40 619.45 L 2074.40 619.37 Q 2100.70 672.80 2112.95 721.95 2125.20 770.64 2125.27 821.97 2125.27 850.07 2122.72 866.08 2120.09 882.09 2112.80 898.54 L 2112.72 898.77 2112.57 872.77 Q 2112.50 850.30 2111.60 839.55 2110.77 828.43 2108.44 816.78 2099.50 775.23 2076.43 717.59 2060.57 678.21 2053.28 647.33 2049.90 633.05 2047.79 617.79 2045.31 600.21 2044.41 581.42 L 2043.81 565.86 2049.90 575.18 M 1497.18 56.29 Q 1503.72 57.19 1510.33 58.47 1309.24 148.49 1269.18 341.92 1269.11 342.00 1269.11 342.07 1267.98 344.33 1267.00 346.66 1254.15 375.74 1255.65 410.16 L 1255.65 410.23 Q 1256.56 436.08 1264.97 454.72 1273.01 473.06 1298.34 507.47 1321.26 538.44 1329.30 553.47 1337.49 568.80 1350.87 605.92 1353.27 612.76 1355.60 618.92 1363.12 639.28 1368.75 651.31 1375.89 666.41 1387.47 683.85 1398.44 700.53 1418.43 720.97 1438.19 741.41 1472.08 771.24 L 1472.16 771.24 Q 1485.23 782.52 1493.80 791.08 1501.54 798.67 1501.99 800.10 1501.99 800.18 1502.07 800.33 1503.04 804.53 1504.10 836.25 1505.37 869.24 1508.15 874.50 L 1508.23 874.57 Q 1509.43 877.35 1509.13 880.58 L 1509.13 880.66 Q 1508.83 884.49 1506.05 895.54 1496.05 934.92 1497.86 972.57 1499.74 1010.29 1513.41 1041.63 1521.53 1060.56 1533.33 1076.04 1544.98 1091.37 1566.77 1111.89 1577.89 1122.19 1587.74 1132.93 1597.28 1143.23 1600.29 1147.81 L 1600.29 1147.89 1606.45 1157.05 1576.09 1175.54 Q 1548.43 1192.45 1530.02 1201.92 1512.14 1211.01 1487.56 1221.01 1401.44 1255.72 1308.41 1258.50 L 1280.45 1259.41 1289.92 1252.19 Q 1316.90 1231.98 1335.46 1206.73 1354.40 1181.10 1354.25 1164.42 1354.25 1157.43 1350.87 1151.94 1347.11 1145.86 1341.85 1144.96 L 1341.78 1144.96 Q 1334.26 1143.53 1326.29 1147.51 1318.78 1151.27 1305.70 1162.77 1234.76 1224.01 1178.03 1242.95 L 1177.95 1242.95 1166.83 1246.78 1165.85 1244.15 1165.93 1244.30 Q 1164.65 1239.87 1162.32 1239.27 1160.52 1238.21 1155.78 1239.12 1150.52 1240.02 1149.62 1239.42 1149.62 1239.34 1149.55 1239.34 1149.55 1238.59 1153.00 1235.36 1165.93 1223.41 1174.57 1191.62 1182.99 1160.36 1180.96 1133.01 1179.30 1108.06 1171.04 1079.73 1162.85 1051.25 1153.15 1036.67 1150.82 1033.14 1145.71 1027.20 1140.60 1021.19 1135.87 1016.23 L 1128.13 1008.34 1164.95 1007.36 Q 1204.33 1006.23 1227.32 1008.11 1250.02 1009.91 1278.65 1016.45 L 1278.58 1016.38 Q 1306.76 1022.91 1326.37 1024.19 1346.28 1025.55 1365.67 1022.31 1435.18 1011.04 1454.20 972.27 1463.29 954.30 1458.56 938.67 L 1458.56 938.60 Q 1453.60 922.59 1437.44 918.31 L 1437.51 918.38 Q 1431.28 916.43 1422.41 918.16 L 1422.33 918.16 Q 1414.22 919.81 1382.66 928.53 1335.31 941.76 1302.55 933.11 1269.48 924.25 1215.53 883.82 1184.79 860.82 1168.03 850.53 1151.35 840.23 1128.50 830.39 1102.73 819.19 1093.18 814.83 L 1079.58 808.44 1075.07 789.43 Q 1070.86 772.22 1069.06 761.02 L 1069.06 761.17 1068.31 754.26 1077.78 750.20 Q 1087.32 746.30 1108.06 732.77 1140.75 710.67 1163.00 689.33 1185.32 667.69 1194.41 649.13 1199.67 638.38 1200.80 633.57 1201.70 629.21 1201.85 618.17 L 1201.85 618.09 Q 1201.85 616.44 1201.85 614.64 1201.85 602.01 1201.10 597.05 L 1201.10 596.98 Q 1200.12 591.79 1196.89 585.40 1189.15 570.15 1168.11 556.70 1147.37 543.40 1124.30 538.59 1106.49 534.90 1082.21 534.23 1057.49 533.55 1043.06 536.48 1009.92 542.72 985.80 565.04 991.13 557.97 997.67 550.68 1013.08 533.40 1030.51 519.80 1045.16 508.45 1075.82 488.24 1112.65 464.26 1132.26 444.73 1152.18 424.96 1161.27 403.24 1164.88 394.68 1167.51 388.36 1171.34 378.90 1172.92 374.46 1173.37 373.19 1173.74 372.13 1176.60 365.82 1178.03 363.19 L 1178.10 363.12 1178.03 363.12 Q 1179.30 360.64 1180.58 358.16 L 1180.66 358.16 1180.66 358.08 Q 1181.03 357.25 1181.48 356.50 1181.56 356.35 1181.56 356.28 L 1181.63 356.20 Q 1270.83 178.93 1235.36 68.46 1248.14 65.53 1262.42 63.12 1281.88 59.82 1284.14 59.52 1284.36 59.44 1284.59 59.44 L 1284.74 59.44 Q 1285.26 59.67 1285.86 59.67 L 1335.76 56.59 Q 1335.84 56.59 1335.91 56.59 1338.24 56.21 1341.17 55.99 1353.12 54.63 1373.41 53.28 1403.40 51.25 1439.09 52.15 1474.64 53.05 1497.18 56.29 M 1644.10 228.22 Q 1669.57 246.79 1691.82 288.49 1713.83 330.28 1720.30 371.98 1726.08 409.33 1716.84 460.96 1707.67 512.73 1687.68 555.95 1676.11 581.04 1658.38 609.98 1656.35 613.21 1654.02 616.89 1635.98 645.60 1599.91 698.58 1572.18 739.31 1555.35 769.44 1538.51 799.35 1526.64 828.73 L 1524.91 833.17 1525.51 809.72 Q 1525.96 794.92 1527.02 778.83 1528.14 762.90 1529.27 755.31 1532.20 736.90 1538.81 711.50 1545.58 686.03 1552.04 668.44 1558.88 649.88 1574.06 619.07 L 1574.06 619.14 Q 1574.89 617.42 1575.71 615.76 1592.09 582.62 1606.82 558.05 1630.04 519.05 1642.82 491.09 1655.59 462.61 1661.98 435.18 1668.29 409.48 1670.70 387.46 1673.18 365.60 1673.18 337.19 1673.18 314.34 1672.43 305.18 1671.68 295.71 1668.97 284.74 1665.29 269.71 1657.92 253.40 1650.56 237.24 1643.27 227.62 1643.65 227.92 1644.10 228.22 M 1102.20 125.95 Q 1125.57 110.54 1138.42 104.00 1151.27 97.24 1177.65 86.80 1197.57 78.83 1215.60 73.65 1248.44 178.10 1163.60 346.88 L 1163.60 346.81 Q 1163.52 346.96 1163.45 347.18 1163.00 348.01 1162.55 348.91 1162.47 348.91 1162.47 348.99 L 1162.55 348.99 Q 1161.27 351.32 1160.07 353.80 L 1160.07 353.72 Q 1159.99 353.72 1159.99 353.80 L 1159.99 353.87 Q 1158.41 356.80 1155.33 363.64 L 1155.33 363.57 1155.18 363.87 1155.18 363.94 Q 1155.03 364.09 1154.96 364.32 1154.28 365.75 1153.38 368.15 1151.65 372.66 1145.41 386.56 1143.76 390.09 1141.88 394.23 1132.71 414.37 1113.40 432.93 L 1113.47 432.93 Q 1093.86 451.49 1068.23 468.40 1057.94 475.31 1049.67 480.50 1054.56 474.63 1057.64 467.72 1060.19 461.71 1060.64 456.90 1064.63 459.23 1071.09 452.47 1076.65 446.38 1082.81 434.43 1089.88 420.45 1092.43 409.11 1094.84 397.76 1094.84 378.82 1094.84 364.99 1093.94 358.46 1093.11 351.77 1090.18 343.43 1082.89 322.91 1070.79 309.84 1058.62 296.46 1042.46 291.50 1032.01 288.19 1018.86 287.74 1005.41 287.29 996.54 289.70 988.50 291.87 982.87 297.59 976.33 303.97 978.06 309.16 L 978.06 309.08 Q 979.71 315.70 983.32 315.62 985.95 316.15 994.06 312.54 999.55 310.14 1004.06 309.61 1008.79 308.93 1019.39 309.46 1039.23 310.44 1049.45 317.73 L 1049.52 317.80 Q 1059.59 325.39 1068.39 345.61 1072.59 355.45 1073.42 360.71 1074.17 365.97 1074.17 383.56 1074.17 397.68 1073.42 405.12 1072.67 412.64 1070.79 418.88 L 1070.79 418.95 1069.59 422.86 1068.99 420.68 1068.99 420.75 Q 1066.36 410.16 1058.99 397.23 1051.55 384.46 1044.49 377.92 L 1044.41 377.92 Q 1030.21 365.14 1009.32 360.18 988.20 355.07 970.54 360.18 953.71 365.14 942.81 375.82 930.34 387.84 937.78 394.83 L 937.78 394.90 Q 940.71 397.68 944.62 396.33 947.47 395.43 956.19 389.42 971.52 379.12 980.54 379.27 979.03 380.70 976.25 382.73 961.97 393.32 954.46 414.07 947.02 434.73 950.40 453.97 955.21 482.83 976.03 492.97 986.32 498.23 999.10 499.73 1010.82 501.01 1019.46 498.31 1014.50 503.79 1000.68 517.92 973.32 545.72 962.88 562.18 L 954.54 574.51 952.43 563.08 Q 950.10 550.76 948.30 534.90 946.49 519.12 943.49 485.68 L 943.49 485.61 Q 941.53 464.87 934.70 440.74 925.75 409.63 927.03 384.38 928.23 358.91 940.33 328.32 946.79 312.09 953.11 300.44 L 953.11 300.52 Q 959.42 288.94 975.13 264.52 L 975.13 264.60 Q 990.98 240.02 1001.73 220.86 1027.13 175.70 1102.20 125.95 M 1028.63 419.93 L 1028.63 419.85 Q 1028.18 415.19 1029.16 413.77 1030.74 412.49 1033.67 413.69 1037.12 415.04 1038.18 418.05 L 1038.18 418.12 Q 1040.05 423.23 1036.82 426.47 1033.97 429.17 1030.59 426.39 L 1030.51 426.31 Q 1029.01 424.74 1028.63 419.93 M 1039.68 558.05 L 1039.75 558.05 Q 1050.50 555.34 1078.15 555.95 1105.81 556.62 1118.58 560.00 1129.86 562.93 1145.26 570.22 1160.44 577.59 1167.66 583.37 L 1167.66 583.45 Q 1170.51 585.85 1173.52 589.69 1176.52 593.44 1177.80 596.37 L 1177.80 596.45 Q 1181.33 604.04 1181.18 615.46 1181.18 616.74 1181.11 618.02 1180.73 627.34 1177.65 633.50 1171.26 646.05 1155.56 652.21 1140.30 658.15 1132.49 651.98 L 1132.41 651.91 Q 1131.06 650.63 1129.71 648.00 L 1129.71 648.08 Q 1128.28 645.22 1127.75 642.59 L 1127.75 642.67 Q 1126.17 633.65 1120.39 628.09 L 1120.39 628.01 Q 1114.38 622.38 1105.66 621.47 1096.79 620.42 1089.35 622.98 1081.54 625.53 1076.65 631.39 1070.26 639.13 1071.54 645.75 1072.44 652.13 1081.16 660.85 1089.80 669.64 1097.62 671.67 1105.51 673.85 1115.88 670.09 L 1115.88 670.17 Q 1120.99 668.37 1122.87 668.29 1124.37 668.37 1126.78 669.94 L 1126.70 669.87 Q 1130.68 672.80 1140.23 673.03 L 1140.30 673.03 Q 1146.84 673.10 1151.12 671.82 1147.74 675.05 1141.35 680.84 1127.30 693.47 1116.18 701.81 1104.83 710.45 1083.79 723.90 1066.73 734.80 1064.93 736.53 1064.10 733.14 1060.72 716.39 1054.78 685.95 1053.05 679.56 L 1053.05 679.64 Q 1051.18 671.67 1048.25 670.02 1046.59 668.74 1044.04 668.52 1041.63 668.22 1039.83 668.97 1035.39 670.09 1035.39 687.30 1035.32 702.71 1038.33 719.24 L 1040.13 729.54 Q 1036.67 726.76 1030.74 721.80 1003.98 699.55 992.18 681.37 L 992.26 681.37 Q 987.53 673.85 983.47 661.83 L 983.47 661.75 Q 979.33 649.88 979.26 643.79 979.26 641.69 979.48 641.16 979.48 641.09 979.56 641.01 979.86 641.09 981.06 641.31 981.14 641.31 981.21 641.31 982.57 641.39 983.09 642.37 L 983.09 642.29 Q 983.84 644.24 984.44 651.01 984.90 655.82 985.95 660.40 987.07 665.29 988.13 667.16 992.11 674.90 1003.31 677.61 L 1003.38 677.68 Q 1014.50 680.16 1021.72 674.98 L 1021.79 674.98 Q 1029.16 669.87 1031.64 657.09 1034.04 644.39 1029.46 635.68 1024.50 626.43 1018.86 624.25 1018.86 624.18 1018.79 624.18 1013.45 621.85 997.14 621.85 L 980.31 621.85 980.61 614.34 Q 981.06 605.02 984.97 597.73 988.95 590.36 998.87 581.04 1016.61 563.76 1039.68 558.05 M 1370.93 406.18 L 1370.93 406.10 Q 1371.76 405.20 1372.51 404.45 1360.34 423.99 1361.31 444.65 L 1361.31 444.73 Q 1362.14 467.04 1378.22 484.48 L 1378.22 484.55 Q 1378.75 485.08 1379.20 485.68 1379.12 485.61 1379.05 485.53 L 1379.05 485.61 Q 1372.96 482.45 1367.48 477.64 1361.84 472.68 1355.23 464.87 1350.42 459.08 1349.59 456.75 L 1349.52 456.67 Q 1348.76 454.27 1349.36 448.56 1350.27 439.47 1356.50 427.44 1362.67 415.19 1370.93 406.18 M 1449.24 409.48 Q 1453.30 410.08 1456.15 414.44 1456.15 414.52 1456.23 414.52 1458.03 417.67 1458.26 419.33 L 1458.26 419.40 Q 1458.33 421.13 1457.13 424.21 1456.08 426.99 1454.80 427.97 1454.72 428.04 1454.65 428.04 1453.22 429.02 1449.99 429.25 1446.46 429.40 1444.80 428.79 L 1444.73 428.79 Q 1443.00 428.04 1441.12 425.56 L 1441.12 425.49 Q 1437.81 421.51 1437.81 418.50 L 1437.81 418.42 Q 1437.96 415.57 1441.12 412.64 L 1441.05 412.64 Q 1445.03 409.03 1449.24 409.48 M 1097.02 648.23 L 1097.09 648.23 Q 1100.47 648.15 1103.18 651.16 L 1103.25 651.16 Q 1103.93 651.98 1104.46 652.74 1103.10 652.28 1100.02 651.38 L 1100.10 651.38 Q 1095.29 649.73 1094.84 649.80 1094.99 648.23 1097.02 648.23 M 1003.91 648.98 L 1003.98 647.10 1004.66 647.93 1004.73 647.93 Q 1006.46 649.88 1007.82 652.36 L 1007.74 652.28 Q 1008.79 654.31 1008.87 655.29 1008.87 656.27 1008.49 657.32 1008.42 657.32 1008.42 657.39 1008.19 657.85 1008.12 658.15 L 1008.04 658.15 Q 1006.91 658.60 1005.94 657.09 1003.91 654.09 1003.91 648.98 M 983.17 707.22 Q 989.85 716.61 1007.82 732.54 1025.63 748.32 1036.00 754.04 L 1035.92 754.04 Q 1045.62 759.82 1046.74 761.32 L 1046.82 761.40 Q 1047.34 762.30 1048.62 766.59 L 1048.70 766.59 Q 1050.12 771.47 1051.18 776.96 L 1051.18 777.03 Q 1054.78 793.71 1058.84 804.01 L 1062.45 814.30 1051.33 817.99 Q 1024.12 826.55 1004.81 847.14 985.20 867.96 982.94 890.88 981.96 899.90 984.07 912.15 986.02 924.25 990.38 934.01 991.81 937.40 992.56 940.18 992.79 941.00 993.16 941.23 991.43 940.85 982.34 938.15 970.24 934.47 962.95 930.78 L 962.95 930.71 Q 949.20 923.72 937.55 903.20 925.60 882.24 916.89 848.95 910.35 823.85 910.27 795.29 910.27 766.74 916.81 736.75 921.85 713.38 942.36 655.52 950.48 632.45 955.81 618.92 957.32 614.94 958.67 611.78 958.37 614.56 958.29 618.02 958.07 624.71 958.59 634.10 959.65 652.28 962.58 664.91 967.76 686.33 983.17 707.22 M 1036.00 847.52 L 1036.07 847.52 Q 1049.22 840.98 1068.08 840.46 1087.17 839.78 1105.96 845.34 1117.16 848.57 1136.54 858.04 1155.63 867.28 1168.03 875.55 1178.70 882.76 1203.13 901.78 1244.46 933.86 1272.49 946.26 1300.59 958.59 1332.68 958.66 1348.54 958.66 1363.57 955.88 1378.67 952.95 1403.62 945.21 1428.05 937.92 1430.22 937.85 1432.63 938.15 1436.39 943.18 1440.52 948.74 1440.67 952.50 1440.52 957.76 1434.66 965.80 L 1434.66 965.88 Q 1428.50 974.37 1420.23 979.93 L 1420.23 980.01 Q 1397.61 995.56 1365.15 1000.45 1332.38 1005.33 1299.54 998.19 1283.53 994.51 1268.20 991.35 1247.01 986.77 1227.77 985.64 1208.16 984.51 1178.48 986.17 1123.17 989.32 1091.46 982.03 1060.04 974.67 1032.61 952.65 1021.42 943.56 1016.91 937.02 1012.40 930.33 1008.57 917.03 1004.66 904.11 1003.08 901.02 L 1003.08 901.18 Q 998.65 890.88 1009.09 873.45 1019.99 855.33 1036.00 847.52 M 1316.60 1180.88 Q 1329.68 1169.60 1333.73 1166.45 1328.40 1185.31 1308.86 1207.78 1289.25 1230.10 1261.97 1248.51 1251.75 1255.27 1248.52 1256.40 1245.43 1257.30 1237.47 1256.63 1225.14 1255.57 1213.05 1253.32 L 1212.97 1253.32 1208.54 1252.49 Q 1228.38 1245.28 1256.93 1226.49 1286.39 1207.10 1316.60 1180.88 M 1234.09 1277.37 Q 1232.81 1278.57 1229.50 1285.86 1219.06 1308.63 1219.06 1330.12 1219.21 1351.84 1229.88 1367.54 L 1232.13 1370.85 1228.15 1370.85 Q 1207.33 1370.85 1173.89 1360.18 1140.30 1349.51 1111.67 1333.80 1099.05 1326.81 1083.72 1311.86 1068.46 1296.83 1061.85 1284.88 1053.13 1268.80 1047.94 1245.43 1042.83 1222.21 1044.79 1208.68 L 1044.79 1208.76 1045.39 1205.22 1051.48 1210.94 Q 1055.38 1214.62 1062.45 1219.95 1069.51 1225.36 1075.45 1229.20 1081.61 1233.03 1092.06 1238.21 1102.43 1243.40 1111.07 1246.78 1123.62 1251.74 1127.15 1253.77 1128.88 1254.82 1129.10 1255.35 1129.03 1255.35 1129.03 1255.42 1128.50 1257.00 1128.95 1259.86 L 1128.95 1259.93 Q 1129.33 1262.41 1130.31 1264.44 1130.31 1264.52 1130.38 1264.59 1132.56 1268.35 1136.47 1268.87 L 1136.54 1268.87 Q 1139.55 1269.25 1152.93 1268.35 1171.34 1267.30 1183.96 1269.85 L 1183.96 1269.78 Q 1197.19 1272.86 1216.28 1274.96 1230.48 1276.76 1234.09 1277.37 M 1997.14 440.52 Q 1979.18 422.71 1959.80 407.00 1939.96 391.00 1929.21 385.58 1921.24 381.45 1914.86 382.80 1908.17 384.01 1904.19 390.77 L 1900.58 397.01 Q 1900.28 397.53 1900.28 398.06 1900.28 398.59 1900.50 399.11 L 1905.46 409.33 1905.46 409.41 Q 1909.45 417.45 1921.62 430.82 1933.64 443.97 1990.16 502.14 L 2023.97 537.31 2023.97 563.69 Q 2023.97 593.44 2026.98 618.39 2028.56 631.47 2031.04 643.27 2038.03 677.31 2057.26 725.25 2068.23 752.46 2076.95 780.41 2085.67 808.29 2089.73 829.03 2093.11 846.02 2093.11 877.50 2093.18 908.61 2089.95 922.74 L 2089.95 922.82 Q 2086.27 939.43 2081.61 949.42 2077.10 959.04 2061.62 974.52 2055.53 980.46 2053.36 981.88 2053.13 981.36 2054.56 977.75 2065.45 950.10 2064.10 925.15 2063.05 907.34 2057.41 898.09 2050.95 887.12 2042.01 892.01 2037.42 894.56 2037.50 898.24 2037.35 900.87 2040.43 910.72 2042.83 918.91 2043.14 932.36 2043.29 945.74 2041.11 955.13 2038.55 965.50 2029.01 984.44 2019.39 1003.60 2011.35 1014.20 2003.68 1024.27 1986.62 1042.75 1978.96 1050.87 1974.60 1055.30 1976.55 1051.32 1979.79 1044.33 1993.69 1014.95 1999.77 990.00 2005.94 964.90 2007.06 932.66 2008.42 894.86 2003.08 866.31 1997.75 837.37 1982.87 802.73 1972.42 778.53 1961.30 759.22 1950.18 739.83 1932.29 714.66 1911.85 685.95 1903.58 672.20 1892.84 654.54 1886.83 635.08 1883.97 626.06 1882.47 617.72 1880.74 608.02 1880.74 599.23 1880.74 592.84 1879.91 590.21 1879.01 587.06 1876.08 585.25 1875.93 585.18 1875.85 585.10 1871.12 582.77 1869.69 583.37 1869.54 583.37 1869.47 583.45 1868.19 583.60 1864.36 587.73 L 1864.28 587.81 Q 1860.52 591.94 1859.62 605.02 1859.17 611.25 1860.07 618.39 1861.88 632.90 1869.24 651.16 L 1869.24 651.23 Q 1879.99 677.76 1900.58 706.84 1922.75 738.25 1934.32 756.21 1945.59 774.10 1952.21 787.93 1971.97 829.26 1980.61 866.91 1989.25 904.63 1987.45 941.23 1986.02 969.03 1979.71 991.80 1973.40 1014.57 1958.89 1043.88 1948.07 1065.75 1934.92 1084.54 1927.78 1094.53 1919.52 1104.45 1924.33 1074.24 1922.30 1039.60 L 1922.30 1039.52 Q 1922.22 1038.47 1922.00 1037.57 1922.67 1033.21 1923.27 1028.93 1925.60 1010.89 1923.50 1002.78 L 1923.50 1002.70 Q 1921.77 995.19 1916.13 991.88 1912.90 989.85 1910.42 990.30 1907.57 990.53 1905.76 993.53 1905.69 993.61 1905.69 993.68 1904.94 994.73 1904.26 1002.32 1903.58 1009.39 1903.51 1017.80 1902.98 1050.27 1890.43 1080.40 1877.66 1110.54 1854.29 1135.26 1836.48 1154.27 1815.06 1166.82 1851.13 1096.64 1832.12 1026.00 1831.59 1024.27 1830.69 1022.91 1831.52 1009.91 1830.92 993.31 1829.71 954.76 1818.07 921.69 1806.49 888.63 1778.76 844.81 1772.68 835.27 1764.71 818.51 1756.82 801.75 1753.21 790.78 1745.47 767.34 1744.87 742.54 L 1744.87 742.46 Q 1744.19 717.51 1750.73 693.02 1754.49 678.89 1754.19 673.70 1753.89 667.31 1748.48 664.53 1740.74 660.40 1736.23 667.46 1732.47 672.95 1727.44 692.64 1723.45 708.42 1723.68 738.10 1723.90 767.64 1728.26 783.19 1732.85 800.03 1740.06 815.88 L 1740.06 815.81 Q 1747.13 831.74 1760.43 854.73 1777.26 884.19 1785.38 900.72 L 1785.38 900.80 Q 1793.87 917.78 1799.73 934.47 1811.98 969.79 1811.75 1002.55 1811.60 1035.39 1798.98 1070.63 1791.69 1090.92 1784.62 1104.90 L 1784.62 1104.83 Q 1777.26 1118.88 1766.66 1133.08 L 1766.66 1133.16 Q 1758.02 1144.96 1738.18 1165.47 1728.86 1175.09 1723.60 1180.05 1726.23 1175.77 1729.69 1169.30 1735.85 1157.51 1739.69 1147.44 1747.35 1127.22 1749.15 1105.88 1750.96 1084.69 1747.28 1059.51 1744.57 1041.63 1740.14 1035.39 1737.13 1031.18 1733.75 1031.48 1730.44 1031.41 1727.14 1035.54 L 1727.21 1035.54 Q 1725.11 1037.49 1725.41 1044.11 1725.63 1049.37 1727.66 1063.72 1730.22 1083.41 1729.69 1098.06 1729.01 1112.57 1724.81 1129.40 1720.07 1147.96 1707.60 1168.85 1695.20 1190.04 1679.19 1206.35 1670.85 1214.92 1668.60 1218.53 1665.44 1223.18 1667.47 1226.12 1667.54 1226.19 1667.62 1226.27 1668.60 1227.77 1671.08 1229.35 L 1671.00 1229.35 Q 1673.25 1230.70 1675.28 1231.00 1680.32 1231.98 1693.70 1225.29 1706.17 1218.98 1715.71 1211.24 L 1715.71 1211.16 Q 1716.47 1210.56 1717.22 1210.03 1712.63 1214.54 1705.42 1221.16 1684.15 1240.62 1669.95 1249.79 1640.57 1269.02 1587.21 1293.30 1533.55 1317.65 1482.75 1334.78 1432.55 1351.46 1376.04 1362.21 1319.38 1372.73 1279.70 1372.73 L 1258.74 1372.73 1254.15 1367.47 Q 1252.12 1364.99 1249.27 1360.33 1246.41 1355.44 1244.38 1351.31 L 1244.46 1351.39 Q 1237.32 1335.76 1241.00 1316.07 1244.68 1296.23 1256.71 1285.78 L 1256.78 1285.78 1263.85 1279.92 1300.37 1279.55 Q 1330.35 1279.24 1351.84 1276.84 1373.04 1274.44 1401.37 1268.12 1456.68 1255.65 1501.39 1237.31 1546.03 1218.90 1587.21 1191.47 1606.22 1179.00 1611.11 1175.92 1611.18 1177.87 1611.03 1181.18 1610.58 1190.19 1608.63 1196.66 L 1608.55 1196.73 Q 1607.65 1200.11 1605.47 1204.47 1603.37 1208.91 1601.26 1211.99 L 1601.34 1211.99 Q 1596.53 1218.90 1596.15 1223.86 1595.63 1229.42 1600.14 1233.25 1600.14 1233.33 1600.21 1233.33 1605.17 1237.76 1610.81 1236.64 L 1610.88 1236.64 Q 1615.77 1235.58 1623.73 1228.97 L 1640.94 1214.62 Q 1653.11 1204.47 1659.50 1186.74 1665.51 1169.30 1664.46 1147.81 1663.64 1130.98 1659.95 1119.86 1656.27 1108.88 1640.94 1076.65 1627.94 1049.52 1623.51 1037.79 1619.30 1026.37 1616.37 1011.27 1612.08 989.70 1615.09 967.61 1617.87 945.44 1627.94 920.79 1634.78 904.03 1635.91 897.34 1637.48 888.40 1632.22 886.90 1626.29 884.27 1620.73 891.11 1616.14 896.52 1610.73 910.57 L 1610.73 910.64 Q 1596.83 947.09 1594.65 978.95 1592.47 1010.82 1602.01 1039.22 1606.07 1050.95 1622.68 1086.19 1629.82 1100.92 1635.46 1113.84 1641.09 1126.99 1642.22 1131.05 L 1642.22 1131.13 Q 1646.35 1145.18 1644.47 1160.96 1642.59 1176.59 1635.38 1189.14 L 1635.30 1189.22 Q 1633.35 1192.37 1632.00 1194.40 1631.70 1190.65 1631.55 1184.11 1631.47 1169.83 1628.32 1157.43 1625.23 1144.65 1619.60 1136.09 L 1619.67 1136.09 Q 1617.64 1132.93 1606.67 1121.28 1596.08 1109.94 1582.78 1096.94 1557.60 1072.06 1548.21 1059.21 L 1548.13 1059.21 Q 1538.81 1046.44 1530.25 1025.09 1522.96 1006.91 1520.63 993.83 1518.30 980.68 1518.30 958.36 1518.30 934.62 1521.15 918.99 L 1521.15 918.91 Q 1523.86 902.98 1533.55 873.52 L 1533.55 873.45 Q 1548.51 826.40 1568.27 788.98 1587.96 751.63 1630.42 689.71 1655.97 652.28 1667.39 634.40 1672.13 626.96 1676.71 619.29 1683.47 607.95 1690.01 596.22 L 1689.94 596.22 Q 1715.94 549.33 1729.24 501.31 1742.54 453.07 1742.54 405.87 1742.54 365.07 1731.95 330.13 1721.42 295.03 1697.53 256.25 1683.78 234.16 1667.77 219.43 1651.61 204.63 1630.42 194.78 1617.27 188.70 1610.28 188.40 1601.86 187.95 1598.33 194.48 1594.87 200.57 1598.26 207.03 L 1598.18 207.03 Q 1600.96 212.59 1612.76 224.39 1631.77 243.10 1642.74 269.71 L 1642.67 269.71 Q 1652.21 293.23 1652.89 334.41 1653.57 375.74 1645.07 417.22 1638.54 448.18 1626.96 476.29 1615.24 504.32 1591.94 544.90 1568.87 584.88 1553.54 617.12 1552.34 619.52 1551.29 621.85 L 1551.29 621.77 Q 1535.13 656.04 1524.54 688.73 1519.05 705.04 1513.11 729.54 1507.18 754.11 1505.82 765.53 L 1505.07 771.77 1486.29 755.01 Q 1463.37 734.57 1439.54 711.13 1412.19 684.30 1399.41 663.03 1390.02 647.33 1378.15 617.27 1373.86 606.52 1369.28 593.97 1356.95 560.00 1344.56 537.23 1337.72 524.83 1327.65 509.95 1328.10 508.75 1328.32 507.47 1330.43 491.62 1336.06 476.81 1340.42 481.40 1346.73 487.11 L 1346.73 487.18 Q 1378.52 515.82 1415.57 517.24 1452.92 518.67 1479.07 491.77 1488.84 481.70 1493.05 469.98 1496.96 458.48 1497.86 438.04 L 1498.53 421.66 1501.24 424.21 Q 1503.79 426.62 1507.78 432.18 1511.69 437.51 1514.84 442.92 L 1514.92 442.92 Q 1523.41 456.98 1528.82 457.95 1533.70 459.15 1537.54 456.52 L 1537.46 456.60 Q 1541.82 453.82 1541.74 449.08 1541.97 440.97 1526.26 423.16 1511.38 406.25 1487.94 386.94 1467.57 370.25 1445.03 364.54 1422.48 358.68 1400.69 364.54 1382.88 369.28 1367.40 380.70 1351.92 392.20 1344.86 404.52 1337.79 416.55 1331.10 434.81 1328.17 442.62 1326.82 448.48 1316.60 467.04 1311.57 487.26 1310.21 485.38 1308.78 483.50 1291.58 460.81 1284.06 441.95 1276.62 423.08 1276.62 402.49 1276.85 368.08 1292.40 341.62 L 1292.40 341.70 Q 1307.96 315.32 1336.36 301.49 1352.45 293.68 1365.67 290.82 1378.82 287.89 1393.55 289.02 1408.96 290.07 1420.98 293.30 1433.31 296.68 1449.99 304.50 1464.42 311.26 1469.75 311.86 1473.44 312.24 1475.31 310.51 1477.34 308.86 1477.34 305.18 1477.87 295.41 1448.41 280.98 1433.16 273.54 1419.10 270.08 1405.05 266.70 1388.74 266.70 1367.93 266.70 1344.71 274.82 1321.48 282.86 1306.68 295.26 1303.52 297.81 1300.67 300.52 1354.78 141.20 1541.07 66.66 L 1541.14 66.66 Q 1541.74 66.36 1542.35 66.06 1562.86 71.99 1583.75 80.63 1627.71 98.89 1686.11 134.59 1775.98 189.67 1834.07 234.39 1892.31 279.25 1937.85 328.70 1960.85 353.72 1968.14 362.51 1975.95 372.06 1985.50 386.71 1998.72 406.78 2005.64 422.93 2011.95 437.89 2016.83 459.08 2012.02 455.10 1997.14 440.52 Z"/></g></defs><g><use xlink:href="#Layer0_0_FILL"/></g></g></svg>