
<svg xmlns="http://www.w3.org/2000/svg" version="1.1" xmlns:xlink="http://www.w3.org/1999/xlink" preserveAspectRatio="none" x="0px" y="0px" width="1920px" height="1080px" viewBox="0 0 1920 1080">
<defs>
<g id="Layer0_0_MEMBER_0_MEMBER_0_MEMBER_0_FILL">
<path fill="#000000" stroke="none" d="
M 481.5 207.65
Q 481.35 208.6 481.75 209.6
L 484.45 215.1
Q 485.05 216.35 486.45 216.9 487.85 217.35 489.1 216.7 490.45 216.1 490.95 214.7 491.4 213.35 490.75 212.1
L 489.75 209.95
Q 494.7 211.65 500.25 214.6 501.45 215.25 502.85 214.85 504.25 214.4 505 213.1 505.65 211.9 505.25 210.4 504.8 209.1 503.5 208.4 455.3 182.65 422.5 231.4
L 422.1 232
Q 395.4 223.6 376.1 224.4 372.3 205.45 357.75 190.9 338.15 171.3 310.25 171.2 282.3 171.3 262.7 190.9 243.05 210.55 243.05 238.4 243.05 266.35 262.7 285.9 282.3 305.6 310.25 305.65 338.15 305.6 357.75 285.9 365.8 277.85 370.35 268.75
L 370.35 268.8
Q 370.6 270.35 371.75 271.15 372.9 272.05 374.25 271.9
L 376.5 271.65 375.35 273.9 369.35 275.05
Q 367.95 275.45 367.1 276.55 366.3 277.9 366.6 279.15 366.9 280.65 368.1 281.4 369.35 282.25 370.7 281.9
L 372 281.65 371 284.65
Q 370.4 284.6 369.6 284.75
L 363.1 286.75
Q 361.8 287.15 361 288.5 360.35 289.7 360.75 291.15 361.2 292.5 362.5 293.25 363.75 293.9 365.1 293.5
L 368.85 292.3 367.75 298 358.45 301.3
Q 357.1 301.85 356.5 303.15 355.8 304.45 356.35 305.75 356.8 307.15 358.1 307.75 359.45 308.45 360.75 307.9
L 366.7 305.8 366.5 307.9
Q 366.35 309.4 367.25 310.5 368.35 311.6 369.7 311.65 371.05 311.85 372.25 310.9 373.35 309.9 373.5 308.5
L 373.5 307.5 378 310.8
Q 379.05 311.65 380.6 311.5 382.05 311.3 382.85 310.15 383.8 308.9 383.5 307.5 383.35 306.1 382.2 305.25
L 374.6 299.55 375.2 296.5 378.75 300.5
Q 379.65 301.5 381.1 301.65 382.6 301.65 383.7 300.75 384.8 299.65 384.85 298.25 384.85 296.9 383.95 295.75
L 377.25 288.3
Q 377.95 285.95 378.6 284.25
L 381.25 288.4
Q 382 289.6 383.45 289.9 384.8 290.2 386.1 289.4 387.3 288.55 387.6 287.15 387.9 285.9 387.1 284.55
L 381.85 276.55 381.85 276.5 383.2 274.05 385.25 277.4
Q 386 278.6 387.45 278.9 388.8 279.25 390.1 278.5 391.3 277.75 391.6 276.3 391.95 274.95 391.2 273.65
L 387.35 267.55 389.75 264.55 393 270
Q 393.85 271.3 395.2 271.65 396.65 271.95 397.85 271.25 399.05 270.5 399.45 269.05 399.75 267.7 399 266.4
L 394.75 259.25
Q 395.8 258.3 398 256.5
L 400.75 261.4
Q 401.45 262.7 402.85 263.05 404.2 263.5 405.5 262.75 406.75 262.1 407.2 260.65 407.6 259.3 406.85 258
L 403.75 252.35 405.25 251.35 406.1 253.15
Q 406.8 254.5 408.1 254.95 409.4 255.55 410.75 254.9 412.1 254.3 412.6 252.9 412.85 252.3 412.85 251.7
L 429.5 268.25 429 268.9
Q 428.55 270 428.75 271 428.9 272.2 429.7 272.9
L 445.85 289.4
Q 445.35 289.95 445.1 290.5 444.65 291.3 444.75 292.25 444.75 293.25 445.35 294
L 457.5 312.25 457.1 312.75
Q 456.5 313.5 456.35 314.4 456.2 315.3 456.6 316.25
L 464.85 336.55 464.95 336.75
Q 464.55 337.4 464.45 338.15 464.25 339.1 464.7 340.05
L 474.85 362.75 474.85 362.9
Q 473.8 363.2 473.2 363.9 472.5 364.55 472.25 365.5 472.05 366.5 472.35 367.4
L 474.25 373 473.95 373.15
Q 468 375.5 460.5 378.9 460.25 379.05 460.1 379.05 411.45 405.25 396.1 450.4 395.95 450.65 395.85 451.25
L 326.85 451.25
Q 324.5 451.25 313.45 450.5 303.05 449.75 290.85 444.5 247.8 424.55 257.7 388.4
L 257.7 388.3
Q 267.75 353.95 310.5 362.65 312.6 363.15 314.6 362.15 316.5 361.35 317.5 359.4 318.55 357.45 318.25 355.3 317.85 353.15 316.35 351.65 286.45 322.35 254.55 326.75 223.4 330.45 190.8 366.9
L 190.35 367.5
Q 136.2 443.95 106.8 439.15 104.25 438.55 101.9 440 99.65 441.5 99.15 444.15 98.55 446.75 100.05 449 101.5 451.25 104.15 451.8 140.05 460.85 200.65 375.3 229.35 343.4 256.2 339.65 273.6 337.6 290.5 347.75 254.85 348.9 245.15 384.8
L 245.15 384.75
Q 231.3 431.3 285.5 456.4
L 285.7 456.4
Q 300.3 462.75 312.6 463.4 324.5 464.25 326.6 464.25 326.7 464.35 326.75 464.25
L 461.35 464.25
Q 463.95 464.35 465.95 462.4 467.85 460.45 467.85 457.75 467.85 455.15 465.95 453.15 464 451.25 461.35 451.25
L 409.6 451.25
Q 424.15 413.3 466 390.65 473 387.5 478.45 385.4
L 483.25 399.4
Q 483.55 400.45 484.35 401 485.1 401.65 486.1 401.75 487.1 401.95 488 401.5
L 499.75 396.15
Q 500.8 395.7 501.35 394.55 501.9 393.55 501.75 392.3
L 499.35 379.9
Q 500.05 379.9 500.35 379.8 535.1 373.65 565.7 383.75 568.2 384.65 570.65 383.4 573 382.25 573.9 379.65 574.75 377.1 573.5 374.75 572.3 372.3 569.75 371.4 536.2 360.25 498.1 367
L 497 367.25 495.95 361.5
Q 495.75 360.65 495.1 359.75 494.4 359.05 493.5 358.75 492.85 358.6 492.25 358.65 492.4 358 492.25 357.25
L 487.6 333.55
Q 487.35 332.55 486.75 331.9 486.05 331.2 485.1 330.9 484.1 330.65 483.25 330.9
L 482.95 331 478.45 308.5
Q 478.25 307.5 477.5 306.75 476.8 306 475.75 305.75 474.8 305.55 473.75 305.9
L 473.25 306.05 464.35 282.65
Q 464.05 281.75 463.1 281 462.2 280.4 461.1 280.4
L 460.35 280.4 447.95 261.75
Q 447.2 260.65 445.85 260.3 444.7 260.05 443.6 260.5
L 431.85 240.25 436.25 239.9 439.35 243.4
Q 440.35 244.45 441.75 244.6 443.25 244.7 444.25 243.65 445.35 242.75 445.5 241.25 445.5 240.45 445.2 239.7 449.9 239.9 452.25 240.15
L 457.6 245.85
Q 458.65 246.9 460.1 246.9 461.55 247 462.6 245.9 463.65 244.95 463.7 243.45
L 463.7 243.2 468 251.15
Q 468.65 252.4 470.1 252.85 471.5 253.25 472.75 252.5 474 251.9 474.45 250.45 474.85 249.05 474.1 247.75
L 471.75 243.45 473.75 243.95 473.85 244 473.95 244 474 244.1 474.1 244.1 474.7 244.2 482 256.25
Q 482.85 257.5 484.25 257.8 485.55 258.15 486.85 257.4 488.05 256.65 488.45 255.2 488.75 253.8 488 252.6
L 484.75 247.25 489.85 249.15 496.75 265.65
Q 497.4 267.05 498.7 267.5 500.05 268.1 501.35 267.5 502.75 266.95 503.25 265.65 503.8 264.3 503.25 263
L 499 252.85 502 254.15 506.5 264.25
Q 507.05 265.6 508.35 266.15 509.75 266.65 511.1 266.05 512.4 265.5 512.95 264.15 513.45 262.9 512.9 261.4
L 511.6 258.65 518.4 262.15
Q 519.6 262.9 521 262.5 522.5 262.05 523.05 260.75 523.8 259.55 523.4 258.15 522.95 256.75 521.7 256
L 513.25 251.7
Q 514.25 251.45 514.9 250.75 515.95 249.8 515.95 248.35 515.95 246.9 514.9 245.85 513.9 244.85 512.45 244.85
L 505.85 244.85 505.85 244.75
Q 506.8 243.65 506.6 242.15 506.55 240.8 505.35 239.85 504.25 238.95 502.75 239.1
L 488.6 240.6
Q 488.05 240.7 487.6 240.9
L 485.85 240.25 491.75 238.15
Q 493.1 237.65 493.7 236.35 494.35 234.95 493.75 233.65 493.3 232.35 492 231.65 490.6 231.1 489.25 231.6
L 474.6 237 472.75 236.5 477.95 232.1
Q 479.05 231.1 479.1 229.65 479.25 228.25 478.25 227.15 477.35 226.05 475.85 225.9 474.45 225.85 473.35 226.75
L 464.2 234.65 462.7 234.4 465.75 231.85
Q 466.8 230.9 466.95 229.4 467.05 227.95 466 226.9 465.1 225.8 463.6 225.65 462.25 225.6 461.1 226.5
L 453.35 233.2 449.75 232.9 456.7 227.4
Q 457.8 226.45 457.95 225 458.1 223.65 457.2 222.45 456.7 221.85 455.95 221.45 457.05 221.2 457.75 220.35 458.7 219.3 458.6 217.75 458.45 216.35 457.35 215.4
L 452.95 211.65
Q 454.5 210.8 455.6 210.4
L 464.25 216.25
Q 465.55 217.1 466.85 216.75 468.3 216.55 469.1 215.35 469.95 214.05 469.6 212.65 469.4 211.3 468.2 210.45
L 464 207.65 467.75 207.1
Q 468 208.15 468.6 208.9
L 474.85 215.9
Q 475.9 217 477.35 217.15 478.75 217.25 479.85 216.2 480.95 215.3 481 213.85 481.15 212.35 480.1 211.25
L 476.35 206.95
Q 479.75 207.35 481.5 207.65
M 447 222.15
Q 447.55 220.9 447 219.45 446.4 218.15 445 217.65
L 444.25 217.35 446.7 215.45 452.85 220.7
Q 453.2 221.05 453.7 221.2 452.95 221.4 452.25 221.9
L 439 232.6 438.75 232.75
Q 434.05 233 429.5 233.5 434 227.15 438.5 222.5
L 442.5 224.15
Q 443.8 224.65 445.2 224.1 446.5 223.5 447 222.15
M 407.5 242.15
Q 406.8 241.7 406.1 241.65
L 398.25 240.6
Q 397.5 240.5 396.95 240.65
L 397.1 240.45
Q 398.1 239.5 398.1 238
L 398.1 233.15
Q 407 234.75 417.5 237.9 412 239.85 407.5 242.15
M 438 271.4
L 443.85 268.25 454.25 284 451.6 285.75
Q 451.4 285.05 450.75 284.4
L 438 271.4
M 437.45 263.75
L 435.6 264.65 435.1 264 421.45 250.4 427.75 247.1 437.45 263.75
M 412.1 249.25
L 411.5 247.95 412.85 247.35 412.45 247.95
Q 412.1 248.75 412.1 249.25
M 453.1 293.05
L 459.35 289.15 466.75 308.5 464.1 309.5 453.1 293.05
M 377.45 238.4
Q 377.35 234.45 377.1 231.4
L 379.1 231.35 379.1 238
Q 379.1 239.45 380.1 240.45 381.15 241.5 382.6 241.5 384.1 241.5 385.1 240.45 386.1 239.5 386.1 238
L 386.1 231.6
Q 388.8 231.75 391.1 232.1
L 391.1 238
Q 391.1 239.45 392.1 240.45 393.15 241.5 394.6 241.5 395.2 241.5 395.5 241.4 394.45 242.3 394.25 243.6 394.1 245.05 395 246.15 395.8 247.35 397.25 247.5
L 397.7 247.6 397.35 247.7
Q 397.25 247.8 397.25 247.75
L 387 246.45
Q 385.6 246.3 384.35 247.15 383.2 248.15 383 249.5 382.85 251 383.75 252.1 384.7 253.25 386.1 253.4
L 390.2 253.95 388.85 255.2 380.85 254.25
Q 379.5 254.2 378.35 255 377.15 255.9 377 257.3 376.85 258.8 377.75 259.9 378.5 261 380 261.25
L 383.1 261.65
Q 382.15 262.8 381.2 264.25 380.85 264.15 380.1 264.15
L 373.45 264.9
Q 372.6 265.05 372 265.5 377.4 253.1 377.45 238.4
M 476.2 332.75
L 471.45 334.05 471.35 333.9 464.45 316.9 472.35 313.9 476.1 332.55 476.2 332.75
M 472.75 341
L 481.5 338.65 485.35 358.65
Q 485.6 359.55 486 360.15
L 481.5 361.25
Q 481.5 360.65 481.25 359.9
L 472.75 341
M 494.35 390.9
L 488.6 393.5 480.25 368.75 489.7 366.4 494.35 390.9
M 367.5 240.6
Q 367.5 242 368.5 243 369.3 243.8 370.2 243.95 368.4 265.35 352.75 281 335.2 298.65 310.25 298.65 285.35 298.65 267.6 281 250 263.3 250.05 238.4 250 213.55 267.6 195.85 285.35 178.2 310.25 178.2 335.2 178.2 352.75 195.85 365.5 208.55 369.1 225.1 347.75 228.1 336 243.45 335.1 244.65 335.25 246.1 335.45 247.5 336.6 248.4 337.75 249.25 339.25 249.1 340.7 248.85 341.5 247.7
L 342.75 246.25 345.1 250.65
Q 345.85 251.9 347.25 252.35 348.65 252.75 349.85 252 351.15 251.35 351.6 249.9 352 248.55 351.25 247.25
L 347.95 241.15
Q 350.4 239.15 353.25 237.5
L 354.75 244.45
Q 355.05 245.9 356.25 246.65 357.5 247.45 358.95 247.15 360.3 246.85 361.1 245.6 361.9 244.4 361.6 242.95
L 359.7 234.5
Q 363.85 233.05 367.5 232.4
L 367.5 240.6 Z"/>
</g>
</defs>

<g transform="matrix( 3.4379730224609375, 0, 0, 3.4379730224609375, -232,-544.9) ">
<use xlink:href="#Layer0_0_MEMBER_0_MEMBER_0_MEMBER_0_FILL"/>
</g>
</svg>
