
<svg xmlns="http://www.w3.org/2000/svg" version="1.1" xmlns:xlink="http://www.w3.org/1999/xlink" preserveAspectRatio="none" x="0px" y="0px" width="1280px" height="720px" viewBox="0 0 1280 720">
<defs>
<g id="Layer0_0_FILL">
<path fill="#000000" stroke="none" d="
M 476.35 206.95
Q 478.9107421875 207.1900390625 481.5 207.65 481.3931640625 208.630078125 481.8 209.55
L 484.45 215.05
Q 485.1083984375 216.359765625 486.45 216.85 487.8369140625 217.3310546875 489.15 216.7 490.4609375 216.0810546875 490.95 214.7 491.4416015625 213.3640625 490.8 212.05
L 489.8 209.95
Q 494.925 211.738671875 500.25 214.55 501.5427734375 215.2287109375 502.9 214.8 504.3125 214.3646484375 505 213.05 505.679296875 211.798828125 505.25 210.4 504.8228515625 209.0380859375 503.55 208.35 455.3263671875 182.634765625 422.5 231.4 422.30546875 231.6916015625 422.15 232 395.515234375 223.5287109375 376.1 224.4 372.3021484375 205.40625 357.75 190.85 338.100390625 171.2005859375 310.25 171.2 282.3994140625 171.2005859375 262.7 190.85 243.0505859375 210.5494140625 243.05 238.4 243.0505859375 266.250390625 262.7 285.9 282.3994140625 305.59921875 310.25 305.6 338.100390625 305.59921875 357.75 285.9 365.6890625 278.0109375 370.4 268.75
L 370.4 268.8
Q 370.6037109375 270.2560546875 371.75 271.15 372.891015625 272.046875 374.3 271.85
L 376.55 271.6
Q 375.9626953125 272.7544921875 375.35 273.9 375.1826171875 273.9337890625 374.95 273.95
L 369.35 275.05
Q 367.95859375 275.3515625 367.15 276.55 366.3419921875 277.7564453125 366.6 279.15 366.900390625 280.5908203125 368.1 281.4 369.3068359375 282.2068359375 370.7 281.9
L 372.05 281.65
Q 371.523046875 283.116796875 371.05 284.6 370.370703125 284.5330078125 369.65 284.75
L 363.1 286.75
Q 361.7365234375 287.18671875 361.05 288.45 360.370703125 289.751171875 360.8 291.1 361.2353515625 292.5125 362.5 293.2 363.8021484375 293.8779296875 365.15 293.45
L 368.9 292.3
Q 368.284375 295.0861328125 367.8 298
L 358.45 301.3
Q 357.1173828125 301.7904296875 356.5 303.1 355.86875 304.4126953125 356.35 305.75 356.8388671875 307.1306640625 358.15 307.75 359.4646484375 308.3794921875 360.8 307.9
L 366.7 305.8
Q 366.5892578125 306.86796875 366.5 307.9 366.3841796875 309.35546875 367.3 310.45 368.2755859375 311.5568359375 369.7 311.65 371.15390625 311.804296875 372.25 310.85 373.3681640625 309.92265625 373.5 308.45 373.5388671875 307.9880859375 373.55 307.5
L 378 310.8
Q 379.16796875 311.674609375 380.6 311.45 382.0287109375 311.265234375 382.9 310.1 383.7763671875 308.9341796875 383.55 307.5 383.3630859375 306.0728515625 382.2 305.2
L 374.65 299.55
Q 374.9044921875 298.010546875 375.2 296.5
L 378.75 300.45
Q 379.7294921875 301.5236328125 381.15 301.6 382.6203125 301.6734375 383.7 300.7 384.776953125 299.721484375 384.85 298.25 384.92265625 296.8330078125 383.95 295.75
L 377.25 288.3
Q 377.8736328125 286.2203125 378.6 284.2
L 381.25 288.35
Q 382.06796875 289.569921875 383.45 289.85 384.8861328125 290.171875 386.1 289.35 387.3203125 288.584765625 387.6 287.15 387.919140625 285.7642578125 387.1 284.55
L 381.9 276.55 381.9 276.5
Q 382.5513671875 275.279296875 383.2 274.05
L 385.25 277.35
Q 386.0447265625 278.5736328125 387.45 278.9 388.8619140625 279.2365234375 390.1 278.45 391.3259765625 277.7068359375 391.65 276.3 391.9849609375 274.890234375 391.2 273.65
L 387.4 267.55
Q 388.5626953125 266.020703125 389.8 264.55
L 393.05 270
Q 393.8017578125 271.2453125 395.2 271.6 396.6044921875 271.9501953125 397.85 271.2 399.096484375 270.4501953125 399.45 269.05 399.798046875 267.6466796875 399.05 266.4
L 394.8 259.25
Q 396.3537109375 257.8072265625 398 256.45
L 400.75 261.4
Q 401.483203125 262.6544921875 402.85 263.05 404.25859375 263.453125 405.5 262.75 406.795703125 262.0548828125 407.2 260.65 407.6150390625 259.2828125 406.9 258
L 403.75 252.3
Q 404.5458984375 251.8005859375 405.3 251.3
L 406.15 253.15
Q 406.763671875 254.465625 408.1 254.95 409.47734375 255.481640625 410.8 254.85 412.116796875 254.2755859375 412.6 252.9 412.8630859375 252.303515625 412.85 251.7 412.9859375 251.836328125 413.1 251.95
L 429.5 268.25
Q 429.2515625 268.541015625 429.05 268.9 428.573828125 269.90078125 428.75 271 428.919921875 272.09609375 429.7 272.9
L 445.8 289.3
Q 445.86328125 289.363671875 445.9 289.4 445.432421875 289.865234375 445.1 290.45 444.693359375 291.312109375 444.75 292.25 444.814453125 293.2001953125 445.35 294
L 457.55 312.25
Q 457.3287109375 312.466796875 457.1 312.7 456.5201171875 313.469140625 456.35 314.4 456.2396484375 315.33359375 456.6 316.2
L 464.9 336.55
Q 464.935546875 336.6603515625 464.95 336.75 464.5669921875 337.354296875 464.45 338.1 464.28046875 339.1201171875 464.7 340.05
L 474.85 362.75
Q 474.87578125 362.8318359375 474.9 362.85
L 474.85 362.9
Q 473.8919921875 363.141796875 473.2 363.85 472.5015625 364.5591796875 472.25 365.5 472.0537109375 366.48828125 472.35 367.4
L 474.25 373
Q 474.1306640625 373.0888671875 473.95 373.15 468.094140625 375.4490234375 460.5 378.85 460.3265625 378.9751953125 460.1 379.05 411.4107421875 405.27578125 396.1 450.35 395.9451171875 450.8021484375 395.85 451.25
L 326.85 451.25
Q 324.5291015625 451.202734375 313.45 450.45 303.11796875 449.7380859375 290.85 444.45 247.8603515625 424.55625 257.7 388.35
L 257.7 388.3
Q 267.816796875 353.8935546875 310.55 362.65 312.666796875 363.1052734375 314.6 362.15 316.5693359375 361.255078125 317.55 359.35 318.59921875 357.4328125 318.25 355.3 317.9443359375 353.175390625 316.4 351.65 286.458203125 322.3109375 254.55 326.7 223.4650390625 330.377734375 190.8 366.85 190.56796875 367.1521484375 190.35 367.45 136.2271484375 443.9435546875 106.85 439.1 104.2123046875 438.5353515625 101.95 440 99.6998046875 441.4748046875 99.15 444.1 98.584375 446.7330078125 100.05 449 101.5294921875 451.24921875 104.15 451.8 140.0791015625 460.8677734375 200.7 375.3 229.331640625 343.4076171875 256.2 339.6 273.65859375 337.6052734375 290.5 347.7 254.8138671875 348.838671875 245.2 384.8
L 245.2 384.75
Q 231.2509765625 431.2763671875 285.55 456.35 285.6685546875 456.3888671875 285.7 456.4 300.2822265625 462.6619140625 312.6 463.4 324.1705078125 464.197265625 326.6 464.25 326.6955078125 464.2505859375 326.75 464.25
L 461.35 464.25
Q 464.0443359375 464.251953125 465.95 462.35 467.851953125 460.4443359375 467.85 457.75 467.851953125 455.0556640625 465.95 453.15 464.0443359375 451.248046875 461.35 451.25
L 409.6 451.25
Q 424.1576171875 413.252734375 466.05 390.65 473.01640625 387.4958984375 478.45 385.35
L 483.25 399.4
Q 483.5978515625 400.3623046875 484.35 401 485.1591796875 401.640625 486.15 401.75 487.1318359375 401.9091796875 488.05 401.5
L 499.75 396.15
Q 500.8427734375 395.6390625 501.4 394.55 501.969140625 393.47734375 501.75 392.3
L 499.4 379.9
Q 499.90234375 379.8884765625 500.4 379.8 535.0509765625 373.6064453125 565.7 383.75 568.2435546875 384.6171875 570.65 383.4 573.0658203125 382.1923828125 573.9 379.65 574.7689453125 377.1072265625 573.55 374.7 572.3416015625 372.2857421875 569.8 371.4 536.148828125 360.193359375 498.1 367 497.5498046875 367.1009765625 497.05 367.25
L 495.95 361.45
Q 495.762109375 360.503125 495.1 359.75 494.451171875 359.041015625 493.5 358.75 492.9123046875 358.56015625 492.3 358.6 492.4111328125 357.9626953125 492.25 357.25
L 487.6 333.55
Q 487.4388671875 332.6232421875 486.75 331.9 486.112890625 331.1732421875 485.15 330.9 484.2392578125 330.6208984375 483.3 330.85
L 482.95 330.95 478.45 308.45
Q 478.2767578125 307.45 477.55 306.7 476.8162109375 305.95078125 475.8 305.7 474.7802734375 305.5015625 473.8 305.85
L 473.3 306.05 464.35 282.6
Q 463.9828125 281.611328125 463.1 281 462.2287109375 280.378125 461.15 280.35 460.7552734375 280.340234375 460.35 280.4
L 447.95 261.75
Q 447.227734375 260.64140625 445.9 260.3 444.7529296875 260.0013671875 443.65 260.45
L 432.1 240.6
Q 432.0203125 240.445703125 431.9 240.25 434.0736328125 240.0265625 436.25 239.85
L 439.4 243.35
Q 440.3623046875 244.4583984375 441.8 244.55 443.2408203125 244.6251953125 444.3 243.65 445.4125 242.6880859375 445.5 241.25 445.5435546875 240.4140625 445.2 239.7 448.700390625 239.7810546875 452.25 240.1
L 457.65 245.8
Q 458.6806640625 246.86796875 460.1 246.9 461.5587890625 246.9310546875 462.6 245.9 463.658203125 244.920703125 463.7 243.45 463.7025390625 243.3498046875 463.7 243.2
L 468 251.1
Q 468.71953125 252.3919921875 470.1 252.8 471.493359375 253.216015625 472.75 252.5 474.044140625 251.83203125 474.45 250.45 474.864453125 249.0587890625 474.15 247.75
L 471.8 243.45
Q 472.790234375 243.7111328125 473.75 243.95 473.8234375 243.9861328125 473.85 244
L 473.95 244
Q 474 244.0384765625 474.05 244.05
L 474.15 244.05
Q 474.427734375 244.14375 474.7 244.2
L 482.05 256.2
Q 482.8435546875 257.4611328125 484.25 257.8 485.646875 258.1369140625 486.85 257.35 488.1119140625 256.608984375 488.45 255.2 488.784375 253.8037109375 488 252.55
L 484.75 247.25
Q 487.318359375 248.144140625 489.9 249.1
L 496.8 265.65
Q 497.3875 266.975390625 498.7 267.5 500.0609375 268.08203125 501.4 267.5 502.7302734375 266.9625 503.25 265.6 503.8318359375 264.2939453125 503.25 262.95
L 499 252.8
Q 500.5154296875 253.4283203125 502 254.1 502.1015625 254.4392578125 502.25 254.75
L 506.5 264.25
Q 507.084765625 265.5990234375 508.4 266.1 509.77265625 266.6443359375 511.1 266.05 512.4384765625 265.4666015625 512.95 264.1 513.49296875 262.7669921875 512.9 261.4
L 511.65 258.65
Q 515.0091796875 260.350390625 518.4 262.15 519.6728515625 262.8642578125 521.05 262.45 522.433984375 262.030078125 523.1 260.75 523.8162109375 259.4783203125 523.4 258.1 522.9787109375 256.71796875 521.7 256 517.4767578125 253.7470703125 513.3 251.7 514.2267578125 251.473046875 514.9 250.75 515.95 249.7498046875 515.95 248.3 515.95 246.8501953125 514.9 245.8 513.8998046875 244.8 512.45 244.8
L 505.85 244.8
Q 505.9044921875 244.775390625 505.9 244.75 506.83359375 243.6154296875 506.65 242.15 506.525 240.7380859375 505.4 239.8 504.2640625 238.9177734375 502.8 239.05
L 488.65 240.55
Q 488.096484375 240.6357421875 487.6 240.85 486.765625 240.5607421875 485.9 240.25
L 491.75 238.1
Q 493.1259765625 237.616796875 493.7 236.3 494.3314453125 234.980078125 493.8 233.6 493.31875 232.2763671875 492 231.65 490.6775390625 231.0703125 489.3 231.55
L 474.65 237
Q 473.7291015625 236.7478515625 472.8 236.5
L 477.95 232.05
Q 479.04453125 231.09296875 479.15 229.65 479.252734375 228.2162109375 478.3 227.1 477.344921875 226.016015625 475.9 225.9 474.4556640625 225.7994140625 473.35 226.75
L 464.45 234.45
Q 464.326171875 234.5583984375 464.2 234.65 463.47734375 234.5396484375 462.7 234.4
L 465.75 231.8
Q 466.84609375 230.827734375 466.95 229.35 467.0392578125 227.9390625 466.05 226.85 465.1177734375 225.75234375 463.65 225.65 462.2404296875 225.5505859375 461.15 226.5
L 453.4 233.2
Q 451.591015625 233.02578125 449.75 232.9
L 456.7 227.35
Q 457.8236328125 226.4595703125 457.95 225 458.13359375 223.584765625 457.2 222.45 456.677734375 221.7755859375 455.95 221.45 457.034765625 221.21640625 457.8 220.3 458.741015625 219.21875 458.6 217.75 458.519921875 216.343359375 457.4 215.4
L 452.95 211.6
Q 454.2703125 210.9423828125 455.6 210.35 455.8318359375 210.568359375 456.1 210.75
L 464.3 216.25
Q 465.5083984375 217.0560546875 466.9 216.75 468.341015625 216.499609375 469.15 215.3 469.9580078125 214.093359375 469.65 212.65 469.39765625 211.2609375 468.2 210.45
L 464.05 207.65
Q 465.9212890625 207.2849609375 467.8 207.05 467.96328125 208.069921875 468.65 208.85
L 474.9 215.9
Q 475.9021484375 217.01171875 477.35 217.1 478.7904296875 217.1876953125 479.85 216.2 480.9623046875 215.251171875 481.05 213.8 481.134375 212.3599609375 480.15 211.25
L 476.35 206.95
M 446.7 215.45
L 452.85 220.7
Q 453.2693359375 221.033984375 453.7 221.2 452.9529296875 221.404296875 452.3 221.9
L 439 232.55
Q 438.8921875 232.662890625 438.8 232.75 434.08046875 232.9298828125 429.5 233.5 433.8939453125 227.29609375 438.55 222.5
L 442.5 224.1
Q 443.8697265625 224.6306640625 445.2 224.05 446.5244140625 223.468359375 447.05 222.1 447.5818359375 220.7796875 447 219.45 446.41875 218.1267578125 445.05 217.6
L 444.3 217.3
Q 445.4947265625 216.3412109375 446.7 215.45
M 407.5 242.1
Q 406.901953125 241.73828125 406.1 241.6
L 398.25 240.55
Q 397.5828125 240.4779296875 396.95 240.6 397.0416015625 240.558203125 397.1 240.45 398.15 239.4498046875 398.15 238
L 398.15 233.1
Q 407.2697265625 234.753515625 417.55 237.9 412.2720703125 239.769140625 407.5 242.1
M 437.45 263.7
L 435.65 264.65
Q 435.4462890625 264.2982421875 435.1 263.95
L 421.45 250.35 427.75 247.05 437.45 263.7
M 438 271.35
L 443.9 268.25 454.3 284 451.6 285.7
Q 451.3861328125 284.9994140625 450.8 284.4
L 438 271.35
M 412.45 247.95
Q 412.15625 248.5841796875 412.1 249.25
L 411.5 247.95
Q 412.1923828125 247.6296875 412.85 247.3 412.644921875 247.6072265625 412.45 247.95
M 453.15 293.05
L 459.35 289.1 466.75 308.5 464.15 309.5 453.15 293.05
M 377.1 231.35
Q 378.1275390625 231.3423828125 379.15 231.3
L 379.15 238
Q 379.15 239.4498046875 380.15 240.45 381.2001953125 241.5 382.65 241.5 384.0998046875 241.5 385.1 240.45 386.15 239.4498046875 386.15 238
L 386.15 231.55
Q 388.5990234375 231.7431640625 391.15 232.05
L 391.15 238
Q 391.15 239.4498046875 392.15 240.45 393.2001953125 241.5 394.65 241.5 395.102734375 241.5 395.5 241.4 394.51640625 242.254296875 394.3 243.55 394.12421875 244.9990234375 395 246.15 395.8865234375 247.3154296875 397.3 247.5
L 397.7 247.55
Q 397.5396484375 247.6419921875 397.35 247.7 397.3234375 247.7509765625 397.25 247.75
L 397.25 247.75 387 246.45
Q 385.5736328125 246.2896484375 384.4 247.15 383.268359375 248.0650390625 383.05 249.5 382.8880859375 250.92890625 383.75 252.05 384.6625 253.230078125 386.1 253.4
L 390.2 253.95
Q 389.5447265625 254.5798828125 388.85 255.2
L 380.9 254.25
Q 379.49296875 254.1033203125 378.35 255 377.203515625 255.894140625 377 257.3 376.851953125 258.75859375 377.75 259.9 378.6427734375 261.0451171875 380.05 261.2
L 383.15 261.6
Q 382.1486328125 262.8712890625 381.2 264.2 380.6841796875 264.1078125 380.1 264.15
L 373.45 264.9
Q 372.6494140625 265.0287109375 372 265.45 377.449609375 253.0591796875 377.45 238.4 377.4458984375 234.822265625 377.1 231.35
M 367.55 240.55
Q 367.55 241.9998046875 368.55 243 369.2947265625 243.74453125 370.2 243.95 368.4537109375 265.3462890625 352.8 280.95 335.1994140625 298.6005859375 310.25 298.6 285.300390625 298.6005859375 267.65 280.95 250.04921875 263.3494140625 250.05 238.4 250.04921875 213.450390625 267.65 195.8 285.300390625 178.19921875 310.25 178.2 335.1994140625 178.19921875 352.8 195.8 365.5404296875 208.5361328125 369.1 225.05 347.7806640625 228.0642578125 336 243.45 335.1408203125 244.6220703125 335.3 246.05 335.51875 247.48515625 336.65 248.35 337.821484375 249.262109375 339.25 249.05 340.6822265625 248.8806640625 341.55 247.7 342.148046875 246.9857421875 342.75 246.25
L 345.15 250.65
Q 345.8833984375 251.905078125 347.25 252.3 348.6583984375 252.703125 349.9 252 351.1958984375 251.3048828125 351.6 249.9 352.0146484375 248.5322265625 351.3 247.25
L 347.95 241.15
Q 350.44609375 239.1234375 353.25 237.5
L 354.75 244.45
Q 355.09609375 245.865234375 356.3 246.65 357.5431640625 247.4353515625 358.95 247.1 360.36328125 246.8052734375 361.15 245.55 361.9337890625 244.3546875 361.6 242.95
L 359.9 235.15
Q 359.8486328125 234.8138671875 359.7 234.5 363.4126953125 233.1603515625 367.55 232.35
L 367.55 240.55
M 472.75 340.95
L 481.5 338.6 485.4 358.6
Q 485.5888671875 359.466796875 486.05 360.1
L 481.55 361.2
Q 481.5369140625 360.5673828125 481.25 359.9
L 472.75 340.95
M 476.2 332.75
L 471.45 334.05
Q 471.4291015625 333.996484375 471.4 333.9
L 464.45 316.9 472.4 313.85 476.15 332.55
Q 476.1958984375 332.6822265625 476.2 332.75
M 501.55 246.25
Q 501.5515625 246.26484375 501.5 246.25
L 501.55 246.25 501.55 246.25
M 494.35 390.9
L 488.65 393.5 480.25 368.75 489.7 366.4 494.35 390.9 Z"/>
</g>
</defs>

<g transform="matrix( 1, 0, 0, 1, 0,0) ">
<use xlink:href="#Layer0_0_FILL"/>
</g>
</svg>
